<?xml version="1.0" encoding="UTF-8" standalone="no"?>
<!-- Created with Inkscape (http://www.inkscape.org/) -->

<svg
   xmlns:dc="http://purl.org/dc/elements/1.1/"
   xmlns:cc="http://creativecommons.org/ns#"
   xmlns:rdf="http://www.w3.org/1999/02/22-rdf-syntax-ns#"
   xmlns:svg="http://www.w3.org/2000/svg"
   xmlns="http://www.w3.org/2000/svg"
   xmlns:sodipodi="http://sodipodi.sourceforge.net/DTD/sodipodi-0.dtd"
   xmlns:inkscape="http://www.inkscape.org/namespaces/inkscape"
   width="210mm"
   height="297mm"
   viewBox="0 0 210 297"
   version="1.1"
   id="svg4615"
   inkscape:version="0.92.1 unknown"
   sodipodi:docname="fullstack_overview.svg">
  <defs
     id="defs4609">
    <inkscape:path-effect
       effect="simplify"
       id="path-effect5256"
       is_visible="true"
       steps="1"
       threshold="0.000408163"
       smooth_angles="360"
       helper_size="0"
       simplify_individual_paths="false"
       simplify_just_coalesce="false"
       simplifyindividualpaths="false"
       simplifyJustCoalesce="false" />
    <inkscape:path-effect
       effect="simplify"
       id="path-effect5252"
       is_visible="true"
       steps="1"
       threshold="0.000408163"
       smooth_angles="360"
       helper_size="0"
       simplify_individual_paths="false"
       simplify_just_coalesce="false"
       simplifyindividualpaths="false"
       simplifyJustCoalesce="false" />
    <inkscape:perspective
       sodipodi:type="inkscape:persp3d"
       inkscape:vp_x="0 : 148.5 : 1"
       inkscape:vp_y="0 : 1000 : 0"
       inkscape:vp_z="210 : 148.5 : 1"
       inkscape:persp3d-origin="105 : 99 : 1"
       id="perspective5160" />
  </defs>
  <sodipodi:namedview
     id="base"
     pagecolor="#ffffff"
     bordercolor="#666666"
     borderopacity="1.0"
     inkscape:pageopacity="0.0"
     inkscape:pageshadow="2"
     inkscape:zoom="0.88"
     inkscape:cx="283.09259"
     inkscape:cy="605.45455"
     inkscape:document-units="mm"
     inkscape:current-layer="layer1"
     showgrid="false"
     showguides="false"
     inkscape:window-width="1920"
     inkscape:window-height="1149"
     inkscape:window-x="0"
     inkscape:window-y="0"
     inkscape:window-maximized="1" />
  <metadata
     id="metadata4612">
    <rdf:RDF>
      <cc:Work
         rdf:about="">
        <dc:format>image/svg+xml</dc:format>
        <dc:type
           rdf:resource="http://purl.org/dc/dcmitype/StillImage" />
        <dc:title></dc:title>
      </cc:Work>
    </rdf:RDF>
  </metadata>
  <g
     inkscape:label="Layer 1"
     inkscape:groupmode="layer"
     id="layer1">
    <g
       sodipodi:type="inkscape:box3d"
       id="g5176"
       style="fill:#00b98f;fill-opacity:1;stroke:#8aa472;stroke-width:11.33858299;stroke-miterlimit:4;stroke-dasharray:none;stroke-opacity:1"
       inkscape:perspectiveID="#perspective5160"
       inkscape:corner0="3.2559871 : 0.25557739 : 0 : 1"
       inkscape:corner7="1.5830815 : 0.088553055 : 0.25 : 1">
      <path
         sodipodi:type="inkscape:box3dside"
         id="path5178"
         style="fill:#353564;fill-rule:evenodd;stroke:none;stroke-width:1px;stroke-linecap:butt;stroke-linejoin:round;stroke-opacity:1"
         inkscape:box3dsidetype="6"
         d="m 24.671128,100.07942 v 39.24456 l 10.282368,0.5091 v -37.0672 z"
         points="24.671128,139.32398 34.953496,139.83308 34.953496,102.76588 24.671128,100.07942 " />
      <path
         sodipodi:type="inkscape:box3dside"
         id="path5188"
         style="fill:#e9e9ff;fill-rule:evenodd;stroke:none;stroke-width:1px;stroke-linecap:butt;stroke-linejoin:round;stroke-opacity:1"
         inkscape:box3dsidetype="11"
         d="M 34.953496,102.76588 55.593178,75.760345 v 58.955005 l -20.639682,5.11773 z"
         points="55.593178,75.760345 55.593178,134.71535 34.953496,139.83308 34.953496,102.76588 " />
      <path
         sodipodi:type="inkscape:box3dside"
         id="path5180"
         style="fill:#4d4d9f;fill-rule:evenodd;stroke:none;stroke-width:1px;stroke-linecap:butt;stroke-linejoin:round;stroke-opacity:1"
         inkscape:box3dsidetype="5"
         d="M 24.671128,100.07942 40.649125,68.720336 55.593178,75.760345 34.953496,102.76588 Z"
         points="40.649125,68.720336 55.593178,75.760345 34.953496,102.76588 24.671128,100.07942 " />
      <path
         sodipodi:type="inkscape:box3dside"
         id="path5186"
         style="fill:#afafde;fill-rule:evenodd;stroke:none;stroke-width:1px;stroke-linecap:butt;stroke-linejoin:round;stroke-opacity:1"
         inkscape:box3dsidetype="13"
         d="m 24.671128,139.32398 15.977997,-5.94276 14.944053,1.33413 -20.639682,5.11773 z"
         points="40.649125,133.38122 55.593178,134.71535 34.953496,139.83308 24.671128,139.32398 " />
      <path
         sodipodi:type="inkscape:box3dside"
         id="path5184"
         style="fill:#d7d7ff;fill-rule:evenodd;stroke:none;stroke-width:1px;stroke-linecap:butt;stroke-linejoin:round;stroke-opacity:1"
         inkscape:box3dsidetype="14"
         d="m 40.649125,68.720336 v 64.660884 l 14.944053,1.33413 V 75.760345 Z"
         points="40.649125,133.38122 55.593178,134.71535 55.593178,75.760345 40.649125,68.720336 " />
      <path
         sodipodi:type="inkscape:box3dside"
         id="path5182"
         style="fill:#8686bf;fill-rule:evenodd;stroke:none;stroke-width:1px;stroke-linecap:butt;stroke-linejoin:round;stroke-opacity:1"
         inkscape:box3dsidetype="3"
         d="M 24.671128,100.07942 40.649125,68.720336 v 64.660884 l -15.977997,5.94276 z"
         points="40.649125,68.720336 40.649125,133.38122 24.671128,139.32398 24.671128,100.07942 " />
    </g>
    <g
       sodipodi:type="inkscape:box3d"
       id="g5190"
       style="fill:#00b98f;fill-opacity:1;stroke:#8aa472;stroke-width:11.33858299;stroke-miterlimit:4;stroke-dasharray:none;stroke-opacity:1"
       inkscape:perspectiveID="#perspective5160"
       inkscape:corner0="-0.053581697 : 0.027899978 : 0 : 1"
       inkscape:corner7="-0.29162606 : -0.010328417 : 0.25 : 1">
      <path
         sodipodi:type="inkscape:box3dside"
         id="path5192"
         style="fill:#353564;fill-rule:evenodd;stroke:none;stroke-width:1px;stroke-linecap:butt;stroke-linejoin:round;stroke-opacity:1"
         inkscape:box3dsidetype="6"
         d="m 110.9446,171.32292 v 40.3927 l 20.69832,-13.20935 v -31.95236 z"
         points="110.9446,211.71562 131.64292,198.50627 131.64292,166.55391 110.9446,171.32292 " />
      <path
         sodipodi:type="inkscape:box3dside"
         id="path5200"
         style="fill:#afafde;fill-rule:evenodd;stroke:none;stroke-width:1px;stroke-linecap:butt;stroke-linejoin:round;stroke-opacity:1"
         inkscape:box3dsidetype="13"
         d="m 110.9446,211.71562 37.2822,21.24319 16.11407,-22.0318 -32.69795,-12.42074 z"
         points="148.2268,232.95881 164.34087,210.92701 131.64292,198.50627 110.9446,211.71562 " />
      <path
         sodipodi:type="inkscape:box3dside"
         id="path5202"
         style="fill:#e9e9ff;fill-rule:evenodd;stroke:none;stroke-width:1px;stroke-linecap:butt;stroke-linejoin:round;stroke-opacity:1"
         inkscape:box3dsidetype="11"
         d="m 131.64292,166.55391 32.69795,4.48429 v 39.88881 l -32.69795,-12.42074 z"
         points="164.34087,171.0382 164.34087,210.92701 131.64292,198.50627 131.64292,166.55391 " />
      <path
         sodipodi:type="inkscape:box3dside"
         id="path5194"
         style="fill:#4d4d9f;fill-rule:evenodd;stroke:none;stroke-width:1px;stroke-linecap:butt;stroke-linejoin:round;stroke-opacity:1"
         inkscape:box3dsidetype="5"
         d="m 110.9446,171.32292 37.2822,7.66948 16.11407,-7.9542 -32.69795,-4.48429 z"
         points="148.2268,178.9924 164.34087,171.0382 131.64292,166.55391 110.9446,171.32292 " />
      <path
         sodipodi:type="inkscape:box3dside"
         id="path5198"
         style="fill:#d7d7ff;fill-rule:evenodd;stroke:none;stroke-width:1px;stroke-linecap:butt;stroke-linejoin:round;stroke-opacity:1"
         inkscape:box3dsidetype="14"
         d="m 148.2268,178.9924 v 53.96641 l 16.11407,-22.0318 V 171.0382 Z"
         points="148.2268,232.95881 164.34087,210.92701 164.34087,171.0382 148.2268,178.9924 " />
      <path
         sodipodi:type="inkscape:box3dside"
         id="path5196"
         style="fill:#8686bf;fill-rule:evenodd;stroke:none;stroke-width:1px;stroke-linecap:butt;stroke-linejoin:round;stroke-opacity:1"
         inkscape:box3dsidetype="3"
         d="m 110.9446,171.32292 37.2822,7.66948 v 53.96641 l -37.2822,-21.24319 z"
         points="148.2268,178.9924 148.2268,232.95881 110.9446,211.71562 110.9446,171.32292 " />
    </g>
    <text
       xml:space="preserve"
       style="font-style:normal;font-variant:normal;font-weight:normal;font-stretch:normal;font-size:10.58333302px;line-height:125%;font-family:'URW Chancery L';-inkscape-font-specification:'URW Chancery L';letter-spacing:0px;word-spacing:0px;fill:#000000;fill-opacity:1;stroke:none;stroke-width:0.26458332px;stroke-linecap:butt;stroke-linejoin:miter;stroke-opacity:1"
       x="51.112686"
       y="25.802084"
       id="text5206"><tspan
         sodipodi:role="line"
         id="tspan5204"
         x="51.112686"
         y="25.802084"
         style="stroke-width:0.26458332px">Server- a Remote computer</tspan></text>
    <text
       xml:space="preserve"
       style="font-style:normal;font-variant:normal;font-weight:normal;font-stretch:normal;font-size:10.58333302px;line-height:125%;font-family:'URW Chancery L';-inkscape-font-specification:'URW Chancery L';letter-spacing:0px;word-spacing:0px;fill:#000000;fill-opacity:1;stroke:none;stroke-width:0.26458332px;stroke-linecap:butt;stroke-linejoin:miter;stroke-opacity:1"
       x="105.232"
       y="80.823395"
       id="text5210"><tspan
         sodipodi:role="line"
         id="tspan5208"
         x="105.232"
         y="80.823395"
         style="stroke-width:0.26458332px">MySQL database</tspan></text>
    <path
       style="fill:#00b9b5;fill-opacity:1;stroke:none;stroke-width:3;stroke-miterlimit:4;stroke-dasharray:none;stroke-opacity:1"
       id="path5212"
       d="m 50.09421,82.706381 c 0.394303,-0.860928 0.714626,-1.749637 1.018064,-2.645603 0.305001,-0.933442 0.731131,-1.811375 1.263642,-2.634218 1.334405,-2.020226 3.671358,-2.910078 5.788694,-3.988848 0.848395,-0.415393 1.672598,-0.847341 2.577084,-1.132702 0.901769,-0.244063 1.845816,-0.283364 2.775577,-0.305385 0.679463,0.03607 1.371849,-0.05909 2.050002,6.6e-5 0.126307,0.01101 1.103427,0.186497 1.219396,0.206984 1.490276,0.322524 2.926056,0.865049 4.357018,1.385456 1.38638,0.469884 2.698922,1.133372 3.874781,2.004441 1.042916,0.818814 1.859843,1.855449 2.488602,3.014371 0.509521,1.044983 1.074478,2.06425 1.508585,3.143853 0.38159,1.052471 0.974691,2.001772 1.601378,2.922223 0.681635,0.980979 1.47053,1.857285 2.465382,2.522072 1.249714,0.752832 2.660925,1.127397 4.084219,1.382916 1.734021,0.252968 3.490537,0.271015 5.239422,0.285811 1.247558,-0.04372 2.515706,0.119234 3.739137,-0.175239 0.149976,-0.03623 0.30195,-0.06501 0.449929,-0.108686 0.482743,-0.142475 0.40591,-0.144296 0.861745,-0.413237 0.155049,-0.09148 0.623234,-0.360698 0.466926,-0.271391 -3.401586,1.94354 -4.421052,2.593679 -2.86449,1.614599 0.891016,-0.524767 1.621483,-1.249124 2.297385,-2.021224 0.66507,-0.750146 1.39401,-1.440039 2.11229,-2.138349 0.107091,-0.104341 0.214181,-0.208682 0.321273,-0.313023 0,0 4.099979,-1.692071 4.099979,-1.692071 v 0 c -0.10757,0.104851 -0.21515,0.209706 -0.32273,0.314558 -0.718,0.695933 -1.44633,1.38199 -2.13757,2.104823 -0.66784,0.796383 -1.35998,1.588733 -2.251387,2.144263 -1.800265,1.152308 -0.618906,0.405069 -4.693333,2.763605 -0.586483,0.339492 -1.200613,0.593182 -1.876081,0.68613 -1.239112,0.16673 -2.494118,0.05584 -3.74061,0.06864 -1.765054,-0.02932 -3.539122,-0.05781 -5.284811,-0.347379 -1.471872,-0.294238 -2.94208,-0.694346 -4.217983,-1.514925 C 78.354766,88.841693 77.516066,87.942631 76.815264,86.911563 76.16419,85.969696 75.556077,84.9876 75.153815,83.91028 74.734607,82.842996 74.186763,81.833055 73.691159,80.800177 73.094365,79.695669 72.297368,78.726791 71.300202,77.955163 70.143684,77.12462 68.865598,76.491916 67.514078,76.041268 66.09589,75.530376 64.669349,74.999561 63.180041,74.738589 c -1.07729,-0.162595 -2.155748,-0.170349 -3.243646,-0.11824 -0.907915,0.04178 -1.825731,0.09995 -2.690299,0.405689 -0.878316,0.328022 -1.697643,0.77756 -2.538619,1.189127 -1.494748,0.81407 -0.979432,0.538832 2.988897,-1.768599 0.128726,-0.07485 -0.260064,0.146846 -0.37902,0.236405 -0.22964,0.172887 -0.413613,0.396354 -0.595466,0.615521 -0.09694,0.116835 -0.189352,0.237355 -0.284028,0.356031 -0.560255,0.778571 -1.004811,1.611522 -1.312775,2.522974 -0.299998,0.898488 -0.618641,1.787306 -0.974154,2.664701 0,0 -4.056721,1.864183 -4.056721,1.864183 z"
       inkscape:connector-curvature="0" />
    <text
       xml:space="preserve"
       style="font-style:normal;font-variant:normal;font-weight:normal;font-stretch:normal;font-size:10.58333302px;line-height:125%;font-family:'URW Chancery L';-inkscape-font-specification:'URW Chancery L';letter-spacing:0px;word-spacing:0px;fill:#000000;fill-opacity:1;stroke:none;stroke-width:0.26458332px;stroke-linecap:butt;stroke-linejoin:miter;stroke-opacity:1"
       x="106.73532"
       y="109.98769"
       id="text5218"><tspan
         sodipodi:role="line"
         id="tspan5216"
         x="106.73532"
         y="109.98769"
         style="stroke-width:0.26458332px">PHP prog lang...</tspan><tspan
         sodipodi:role="line"
         x="106.73532"
         y="123.21686"
         style="stroke-width:0.26458332px"
         id="tspan5220">the &quot;back end&quot;</tspan></text>
    <path
       style="fill:#00c1cf;fill-opacity:1;stroke:none;stroke-width:3;stroke-miterlimit:4;stroke-dasharray:none;stroke-opacity:1"
       id="path5222"
       d="m 51.960988,114.20655 c 0.680051,-1.0799 1.366531,-2.15626 2.110476,-3.19347 0.615632,-0.72296 1.28511,-1.4279 2.117217,-1.90487 4.300402,-2.465 2.764271,-1.95704 4.884031,-2.59708 0.992333,-0.26242 2.023343,-0.25109 3.041594,-0.25253 1.067324,-0.0419 2.102242,0.2485 3.037427,0.74469 1.178499,0.7241 2.371701,1.42307 3.57151,2.11194 1.329434,0.72738 2.637388,1.48796 3.987641,2.17693 1.20772,0.56279 2.312901,1.30027 3.444505,1.99461 0.872329,0.55284 1.72942,1.13424 2.532099,1.78465 0.995045,0.73377 2.064859,1.32978 3.215617,1.77761 1.286023,0.4671 2.59748,0.86644 3.89727,1.29695 1.454623,0.49998 2.983484,0.64334 4.508275,0.73176 1.592693,0.0647 3.187311,0.0605 4.781002,0.0523 0.686102,-0.004 1.349603,-0.14297 2.012,-0.30287 0,0 -3.504827,2.66027 -3.504827,2.66027 v 0 c -0.680056,0.12535 -1.361503,0.23768 -2.056696,0.22189 -1.596789,-0.006 -3.194563,8e-4 -4.789829,-0.0805 -1.551635,-0.10634 -3.09963,-0.2978 -4.574466,-0.82004 -1.313852,-0.42117 -2.641983,-0.80974 -3.926427,-1.31378 -1.173596,-0.49098 -2.28583,-1.10222 -3.304527,-1.86891 -0.806457,-0.61748 -1.638897,-1.20375 -2.494761,-1.75066 -1.110313,-0.70179 -2.219079,-1.40498 -3.40587,-1.97436 -1.357273,-0.68813 -2.654255,-1.48325 -3.997698,-2.19741 -1.194641,-0.6889 -2.387396,-1.38133 -3.582562,-2.06778 -0.931944,-0.40818 -1.900787,-0.63988 -2.926468,-0.5736 -0.993056,0.0168 -1.997393,0.0383 -2.948387,0.36091 -1.708801,0.66684 -0.555813,0.24927 2.702996,-1.70067 0.190852,-0.1142 -0.396753,0.20275 -0.583676,0.32328 -0.462222,0.29802 -0.701307,0.53014 -1.095954,0.9138 -0.170263,0.16552 -0.333717,0.3379 -0.500576,0.50685 -0.751943,1.00523 -1.446641,2.05668 -2.075958,3.14286 0,0 -4.074978,1.79724 -4.074978,1.79724 z"
       inkscape:connector-curvature="0" />
    <path
       style="fill:#00b98f;fill-opacity:1;stroke:none;stroke-width:3;stroke-miterlimit:4;stroke-dasharray:none;stroke-opacity:1"
       id="path5224"
       d="m 116.72903,181.46057 c -0.29708,-1.12967 -1.15274,-1.93274 -1.97873,-2.70086 -0.94459,-0.88151 -1.96413,-1.67481 -2.95586,-2.50118 -0.86642,-0.74168 -1.76242,-1.45925 -2.75103,-2.03093 -1.39583,-0.81204 -2.87132,-1.49488 -4.36578,-2.1062 -1.88123,-0.69354 -3.81944,-1.25497 -5.772066,-1.71198 -1.638842,-0.4223 -3.316679,-0.64134 -5.002408,-0.75154 -1.087033,-0.0322 -2.182061,-0.11031 -3.266247,-0.001 -0.709118,0.13003 -1.380995,0.38133 -2.015892,0.71974 -0.182359,0.0972 -0.717151,0.41101 -0.538065,0.3079 1.073788,-0.6182 2.148115,-1.23546 3.222173,-1.8532 -1.416106,0.87092 -2.788325,1.80918 -4.213246,2.66687 -1.506223,0.86596 -3.012446,1.73192 -4.518671,2.59788 -0.266702,0.14987 -1.064765,0.60308 -0.80011,0.44962 0.993513,-0.57611 1.989648,-1.14769 2.986746,-1.71756 0.234114,-0.13381 -0.466119,0.27127 -0.697754,0.40932 -0.685554,0.40858 -0.562099,0.33764 -1.221049,0.76988 -0.985576,0.74778 -2.015768,1.42782 -3.055821,2.09619 -1.871835,0.43136 -3.236683,2.0824 -5.006983,2.80942 -1.014794,0.41676 -2.081321,0.74347 -3.137548,1.03509 -1.281764,0.30881 -2.591562,0.44512 -3.906171,0.49323 -1.055259,0.0293 -2.101051,0.056 -3.140287,-0.14488 -0.837022,-0.18441 -1.547373,-0.59996 -2.192732,-1.14693 0,0 3.764193,-2.35547 3.764193,-2.35547 v 0 c 0.603896,0.48757 1.270873,0.8342 2.046584,0.96279 1.024763,0.13789 2.057479,0.1014 3.089111,0.0691 1.282467,-0.0657 2.562844,-0.20541 3.805086,-0.54681 0.805757,-0.23983 1.596933,-0.50131 2.379602,-0.80971 1.451404,-0.5719 4.302379,-2.24293 -1.811324,1.23316 1.048202,-0.66486 2.104506,-1.31846 3.077509,-2.09288 2.028007,-1.40425 4.306197,-2.59151 6.410491,-3.80242 0.265698,-0.1529 1.065676,-0.60644 0.801466,-0.45099 -0.976263,0.57436 -1.958481,1.13854 -2.937719,1.70781 1.424088,-0.83018 2.788293,-1.75189 4.166703,-2.65373 1.440611,-0.82989 2.876709,-1.66766 4.321831,-2.48966 0.826773,-0.47028 1.7359,-0.79444 2.684187,-0.89136 1.092925,-0.0493 2.1892,-0.002 3.280069,0.0726 1.686372,0.15089 3.360362,0.41196 5.001062,0.83805 1.96353,0.49066 3.92439,1.03678 5.81433,1.76354 1.51796,0.62735 3.02952,1.30234 4.45011,2.12851 0.99073,0.61012 1.92249,1.31753 2.79513,2.08712 0.98719,0.83915 2.00369,1.6445 2.9476,2.53344 0.88223,0.82955 1.76828,1.6917 2.16326,2.87056 0,0 -3.92175,2.13773 -3.92175,2.13773 z"
       inkscape:connector-curvature="0" />
    <path
       style="fill:#00b98f;fill-opacity:1;stroke:none;stroke-width:3;stroke-miterlimit:4;stroke-dasharray:none;stroke-opacity:1"
       id="path5226"
       d="m 124.16908,196.50597 c -1.09302,-0.52642 -2.26119,-0.87855 -3.42801,-1.20067 -1.08966,-0.44656 -2.22552,-0.74401 -3.36181,-1.04189 -0.81203,-0.23066 -1.62604,-0.26955 -2.4576,-0.17707 -0.82262,0.0917 -1.61673,0.35202 -2.33816,0.75334 0.28567,-0.20226 -1.1621,0.65616 -0.87216,0.49108 6.05223,-3.44596 3.95297,-2.30128 2.64749,-1.47411 -0.12556,0.0796 -0.25091,0.15944 -0.37636,0.23916 -1.99485,1.35264 -4.03119,2.66354 -6.22395,3.67908 -1.01517,0.60499 -2.12504,0.97782 -3.24106,1.34588 -1.36459,0.31016 -2.70693,0.68898 -4.09051,0.90971 -1.704382,0.19599 -3.423087,0.21963 -5.136848,0.23946 -0.914329,-0.0421 -1.84784,0.10584 -2.758432,-0.0304 -0.143468,-0.0214 -1.203593,-0.27427 -1.340451,-0.30651 -1.60315,-0.51305 -3.205808,-1.01442 -4.76772,-1.64413 -1.751761,-0.7386 -3.595259,-1.19679 -5.434888,-1.65142 -1.201648,-0.29171 -2.359734,-0.74297 -3.569465,-0.99967 0,0 3.645088,-2.52194 3.645088,-2.52194 v 0 c 1.184743,0.30447 2.329661,0.74818 3.517884,1.04337 1.846397,0.47008 3.688815,0.97003 5.449993,1.70846 1.565061,0.59587 3.164689,1.09191 4.771978,1.56086 0.474509,0.10207 0.827468,0.19219 1.3097,0.24118 0.898126,0.0912 1.808351,-0.008 2.708228,0.0271 1.706153,-0.0247 3.420373,-0.0457 5.110483,-0.3053 1.37076,-0.25124 2.72036,-0.61245 4.06486,-0.97495 1.11185,-0.3776 2.18677,-0.82779 3.21394,-1.40076 1.62534,-0.85313 0.71113,-0.38201 -2.88832,1.70313 -0.1327,0.0769 0.26718,-0.15094 0.39654,-0.23332 0.38665,-0.2462 0.73735,-0.54297 1.12734,-0.78419 2.03002,-1.26501 4.05977,-2.54168 6.19424,-3.6249 0.77999,-0.34117 1.59824,-0.58435 2.45353,-0.63109 0.85981,-0.0465 1.70718,0.0673 2.5343,0.31156 1.12632,0.31713 2.24603,0.64509 3.34024,1.06279 1.1904,0.34778 2.37265,0.72402 3.51506,1.21034 0,0 -3.71515,2.47584 -3.71515,2.47584 z"
       inkscape:connector-curvature="0" />
    <path
       style="fill:#00b98f;fill-opacity:1;stroke:none;stroke-width:3;stroke-miterlimit:4;stroke-dasharray:none;stroke-opacity:1"
       id="path5228"
       d="m 128.97968,213.64375 c -1.0307,-0.4206 -2.1381,-0.55309 -3.2374,-0.65305 -0.78267,-0.0555 -1.57754,-0.11855 -2.35049,0.063 -0.41534,0.0975 -0.84532,0.27738 -1.24139,0.42839 -1.35815,0.67958 -4.27076,2.21895 1.74961,-1.05786 0.2072,-0.11278 -0.39495,0.25829 -0.58744,0.39467 -0.47336,0.33536 -0.62974,0.475 -1.07345,0.83684 -0.82993,0.72137 -1.47487,1.63704 -1.94366,2.62699 -0.36608,1.00961 -0.49655,2.08616 -0.71511,3.13428 -0.25196,1.20329 -0.62599,2.36852 -1.07804,3.50953 -0.45536,1.38657 -1.32783,2.51041 -2.29077,3.57799 -0.9447,1.09775 -2.13954,1.91383 -3.34317,2.69807 -1.74435,0.62206 -3.20073,2.12228 -4.98081,2.79946 -0.23229,0.0884 -0.47451,0.1483 -0.7092,0.23008 -0.73991,0.25781 -1.46578,0.54328 -2.21116,0.78659 -1.65931,0.46224 -3.38448,0.54288 -5.095841,0.60413 -1.536176,0.0243 -3.071897,0.1146 -4.59618,-0.10853 -1.750999,-0.27725 -3.445481,-0.76395 -5.131226,-1.3018 -2.139555,-0.79021 -4.326167,-1.44038 -6.48853,-2.16247 -1.809724,-0.52619 -3.509801,-1.2883 -5.116984,-2.26349 -0.918046,-0.56759 -1.727626,-1.2802 -2.505858,-2.02233 -0.09585,-0.1063 -0.191704,-0.21261 -0.287557,-0.31891 0,0 3.798964,-2.30115 3.798964,-2.30115 v 0 c 0.08836,0.098 0.176726,0.19592 0.265089,0.29387 0.751808,0.7192 1.53234,1.41189 2.417427,1.9659 1.565891,0.95877 3.233303,1.70155 4.997243,2.22372 2.171914,0.71046 4.354494,1.3884 6.513454,2.13836 1.680993,0.52404 3.380388,0.97164 5.128525,1.20968 1.503764,0.16887 3.018344,0.0999 4.528474,0.0659 1.69532,-0.0762 3.40412,-0.185 5.03098,-0.71024 0.74129,-0.25494 1.47873,-0.52064 2.212,-0.79796 1.45756,-0.55124 4.21741,-2.16169 -1.85958,1.26057 1.20686,-0.7555 2.4234,-1.53451 3.38895,-2.59456 0.96012,-1.01968 1.88944,-2.06519 2.33834,-3.42231 0.44295,-1.12085 0.86348,-2.24707 1.0925,-3.43614 0.23826,-1.06895 0.3837,-2.15829 0.67874,-3.21195 0.4139,-1.05842 1.07724,-2.02704 1.88328,-2.82664 2.22149,-1.88979 4.78468,-3.36638 7.45782,-4.52397 1.32478,-0.43447 2.33238,-0.52177 3.71781,-0.34261 1.14291,0.12889 2.28354,0.30689 3.3598,0.73217 0,0 -3.71516,2.47584 -3.71516,2.47584 z"
       inkscape:connector-curvature="0" />
    <text
       xml:space="preserve"
       style="font-style:normal;font-variant:normal;font-weight:normal;font-stretch:normal;font-size:10.58333302px;line-height:125%;font-family:'URW Chancery L';-inkscape-font-specification:'URW Chancery L';letter-spacing:0px;word-spacing:0px;fill:#000000;fill-opacity:1;stroke:none;stroke-width:0.26458332px;stroke-linecap:butt;stroke-linejoin:miter;stroke-opacity:1"
       x="31.26894"
       y="183.04877"
       id="text5232"><tspan
         sodipodi:role="line"
         id="tspan5230"
         x="31.26894"
         y="183.04877"
         style="stroke-width:0.26458332px">HTML</tspan></text>
    <text
       xml:space="preserve"
       style="font-style:normal;font-variant:normal;font-weight:normal;font-stretch:normal;font-size:10.58333302px;line-height:125%;font-family:'URW Chancery L';-inkscape-font-specification:'URW Chancery L';letter-spacing:0px;word-spacing:0px;fill:#000000;fill-opacity:1;stroke:none;stroke-width:0.26458332px;stroke-linecap:butt;stroke-linejoin:miter;stroke-opacity:1"
       x="52.616001"
       y="200.18655"
       id="text5236"><tspan
         sodipodi:role="line"
         id="tspan5234"
         x="52.616001"
         y="200.18655"
         style="stroke-width:0.26458332px">CSS</tspan></text>
    <text
       xml:space="preserve"
       style="font-style:normal;font-variant:normal;font-weight:normal;font-stretch:normal;font-size:10.58333302px;line-height:125%;font-family:'URW Chancery L';-inkscape-font-specification:'URW Chancery L';letter-spacing:0px;word-spacing:0px;fill:#000000;fill-opacity:1;stroke:none;stroke-width:0.26458332px;stroke-linecap:butt;stroke-linejoin:miter;stroke-opacity:1"
       x="29.164295"
       y="227.84753"
       id="text5240"><tspan
         sodipodi:role="line"
         id="tspan5238"
         x="29.164295"
         y="227.84753"
         style="stroke-width:0.26458332px">JavaScript</tspan></text>
    <text
       xml:space="preserve"
       style="font-style:normal;font-variant:normal;font-weight:normal;font-stretch:normal;font-size:6.71956158px;line-height:125%;font-family:'URW Chancery L';-inkscape-font-specification:'URW Chancery L';letter-spacing:0px;word-spacing:0px;fill:#000000;fill-opacity:1;stroke:none;stroke-width:0.16798903px;stroke-linecap:butt;stroke-linejoin:miter;stroke-opacity:1"
       x="71.644318"
       y="168.30746"
       id="text5244"
       transform="scale(1.1738999,0.85186139)"><tspan
         sodipodi:role="line"
         id="tspan5242"
         x="71.644318"
         y="168.30746"
         style="stroke-width:0.16798903px">Internet connections,</tspan><tspan
         sodipodi:role="line"
         x="71.644318"
         y="176.70691"
         style="stroke-width:0.16798903px"
         id="tspan5246">wired or WiFi</tspan></text>
    <path
       style="fill:#cc1ece;fill-opacity:1;stroke:none;stroke-width:3;stroke-miterlimit:4;stroke-dasharray:none;stroke-opacity:1"
       id="path5248"
       d="m 41.203075,137.9021 c 0.947603,1.08641 2.017501,2.0284 3.172426,2.88547 1.530493,1.14394 3.233213,2.02339 4.943917,2.86187 1.424103,0.62729 2.944632,0.97441 4.412421,1.48142 1.201132,0.44848 2.463533,0.60533 3.720889,0.80053 0.943506,0.18569 1.913382,0.16606 2.86009,0.32293 0.565391,0.0937 1.138629,0.25227 1.69269,0.39296 2.086549,0.57411 4.140838,1.24642 6.238338,1.77967 2.376501,0.59945 4.823965,0.76527 7.235484,1.14455 1.500211,0.24034 3.00727,0.46309 4.48741,0.81027 1.220745,0.29857 2.466662,0.46851 3.689683,0.75443 1.32669,0.30375 2.678898,0.48691 4.002773,0.79887 1.332619,0.3653 2.715199,0.44991 4.060126,0.74882 1.186503,0.2997 2.319533,0.73913 3.372355,1.36032 0.996514,0.59436 1.978811,1.21517 3.039579,1.68853 1.462997,0.61551 2.903374,1.28222 4.371274,1.88713 1.46105,0.54517 2.88446,1.18429 4.3224,1.78676 1.2194,0.48466 2.38507,1.09894 3.52429,1.74721 1.05581,0.64218 2.19699,1.12986 3.35643,1.55035 1.02742,0.29216 1.96759,0.82887 2.85621,1.41056 1.02182,0.65981 2.11634,1.19305 3.17211,1.79467 1.31944,0.72792 2.73409,1.24742 4.12416,1.8201 1.0643,0.45369 2.20769,0.64905 3.31591,0.96094 0.8965,0.17626 1.75443,0.46315 2.62944,0.719 0.94223,0.30133 1.90377,0.53498 2.85368,0.80868 0.80674,0.15398 1.58557,0.36527 2.34853,0.66899 0,0 -3.67322,2.47094 -3.67322,2.47094 v 0 c -0.76178,-0.27256 -1.54389,-0.44773 -2.33029,-0.63421 -0.95666,-0.26098 -1.90965,-0.53452 -2.86127,-0.8134 -0.86519,-0.26701 -1.73756,-0.49365 -2.61516,-0.71599 -1.11864,-0.29968 -2.25659,-0.54692 -3.31745,-1.02542 -1.40429,-0.57988 -2.82097,-1.1339 -4.15903,-1.85917 -1.07443,-0.58739 -2.17294,-1.13538 -3.19865,-1.80679 -0.88801,-0.54419 -1.81048,-1.02937 -2.81198,-1.33208 -1.16233,-0.45724 -2.3063,-0.9666 -3.37612,-1.61591 -1.13658,-0.62484 -2.2886,-1.2303 -3.49583,-1.70854 -1.42573,-0.61199 -2.8407,-1.25015 -4.291336,-1.80218 -1.477407,-0.60911 -2.936811,-1.26092 -4.410033,-1.8792 -1.069078,-0.49016 -2.067665,-1.11236 -3.075866,-1.71604 -1.027601,-0.57617 -2.138317,-0.98567 -3.286463,-1.25186 -1.346012,-0.27279 -2.720335,-0.39668 -4.049379,-0.7591 -1.336374,-0.26793 -2.679663,-0.50142 -4.010695,-0.79666 -1.232537,-0.26515 -2.482291,-0.44428 -3.70814,-0.74425 -1.457592,-0.32748 -2.92558,-0.60588 -4.402593,-0.83097 -2.415429,-0.36811 -4.851704,-0.61769 -7.231618,-1.19695 -2.108872,-0.53218 -4.177614,-1.20034 -6.2842,-1.74214 -1.505114,-0.34448 -3.02795,-0.4658 -4.555975,-0.66701 -1.282308,-0.18721 -2.559999,-0.39687 -3.777657,-0.86169 -1.465516,-0.52161 -2.993768,-0.87224 -4.39802,-1.55565 -1.725938,-0.8641 -3.443301,-1.76339 -4.994566,-2.92115 -1.180746,-0.87227 -2.257486,-1.84598 -3.289306,-2.88959 0,0 3.802232,-2.33002 3.802232,-2.33002 z"
       inkscape:connector-curvature="0" />
    <path
       style="fill:none;fill-rule:evenodd;stroke:#000000;stroke-width:0.26458332px;stroke-linecap:butt;stroke-linejoin:miter;stroke-opacity:1"
       d="m 15.333807,91.34659 c 0.178364,-0.661515 0.334758,-1.326567 0.313937,-2.028376 -0.03122,-1.052377 -0.0071,-2.106082 -0.01773,-3.158782 -0.0049,-0.481744 0.299815,-0.822813 0.299368,-1.371729 -3.62e-4,-0.444636 -0.25481,-0.991413 0.03137,-1.337887 0.345498,-0.418292 0.243016,-0.932415 0.245094,-1.446669 0.0018,-0.434661 0.215199,-0.876603 0.569834,-1.118938 0.25726,-0.175795 0.102731,-0.600092 0.390626,-0.706262 0.403601,-0.148841 0.316937,-0.412078 0.508002,-0.775239 0.113563,-0.215851 0.0813,-0.422343 0.326374,-0.647465 0.53562,-0.492011 0.869311,-1.819828 1.542408,-1.539808 0.408503,0.169944 0.46368,-0.216402 0.901988,-0.300664 0.381998,-0.07344 0.756149,-0.135653 1.129235,-0.290713 0.403884,-0.16786 0.787999,-0.376991 1.267149,-0.323031 0.420458,0.04735 0.839433,0.03548 1.256676,-0.07912 0.34457,-0.09464 0.700465,-0.230753 0.883179,-0.569587 0.241428,-0.447717 0.833334,-0.05323 1.176356,-0.24086 0.305586,-0.167153 0.406782,-0.769851 0.825014,-0.612472 0.445052,0.167471 0.714434,-0.283447 0.970916,-0.558007 0.526765,-0.563894 1.038643,-1.150858 1.633823,-1.641238 0.329445,-0.271436 0.195259,-0.73288 0.478864,-1.096901 0.252671,-0.324315 0.802796,-0.456001 0.880312,-0.854576 0.06585,-0.338583 0.156068,-0.519309 0.32234,-0.949401 0.09799,-0.253469 0.535005,-1.043919 0.292732,-0.899153 -0.141395,0.08449 -0.482877,0.443043 -0.255056,0.06257 0.226955,-0.379023 0.340068,-0.868195 0.695217,-1.132013 0.333723,-0.247902 0.39376,-0.703704 0.727328,-0.966018 0.349693,-0.274995 0.50817,-0.684748 0.52231,-1.127367 0.01156,-0.361962 0.259368,-0.586595 0.501555,-0.827412 0.639784,-0.636163 1.328637,-1.226078 1.924382,-1.903332 0.280459,-0.318831 0.351366,-0.76337 0.692069,-1.048851 0.276104,-0.231352 0.51724,-0.416365 0.91272,-0.576991 0.832041,-0.337938 1.524186,-1.041856 2.405304,-1.20265 0.322306,-0.05882 0.651839,-0.0024 0.980135,0 1.076382,0.0078 2.285053,-0.516615 3.229145,0 0.227482,0.12448 0.423161,0.171077 0.595894,0.614061 0.141501,0.362887 0.641464,0.429361 0.987422,0.501749 0.3592,0.07516 0.613421,0.364966 0.772964,0.664538 0.195588,0.367254 0.573224,0.25358 0.883982,0.402502 0.131474,0.06301 0.703594,0.283975 0.593204,0.245619 -0.133743,-0.04647 -0.498278,-0.08636 -0.212947,0.121058 0.445963,0.324192 1.048459,0.282298 1.480094,0.630731 0.370601,0.299164 0.840542,0.435984 1.213308,0.72836 0.295145,0.231494 0.479521,0.703864 0.901988,0.601324 0.416067,-0.100987 0.728505,0.07253 1.001903,0.431218 0.249405,0.327207 0.710997,0.185479 1.065321,0.182546 1.06492,-0.0088 2.13888,-0.140028 3.195218,-0.0056 0.469483,0.05974 0.947356,-0.08739 1.352141,-0.307498 0.305676,-0.16622 0.389406,-0.713294 0.826082,-0.609555 0.444597,0.105621 0.910405,-0.104598 1.235834,-0.377914 0.146145,-0.122742 0.0019,-0.32886 0.270064,-0.465335 0.395682,-0.201383 0.721405,-0.468922 1.087683,-0.727598 0.418699,-0.295697 0.933117,-0.441846 1.319452,-0.782347 0.274025,-0.241515 0.547553,-0.480769 0.87307,-0.66721 0.507142,-0.290467 -0.286895,0.376402 -0.195212,0.308245 0.426882,-0.31734 1.091283,-0.465533 1.273516,-0.964118 0.179755,-0.491806 0.6169,-0.120584 1.011358,-0.413605 0.275204,-0.204434 0.690381,-0.150079 1.034524,-0.323521 0.285603,-0.143939 0.44328,0.15447 0.758651,0.112654 0.356114,-0.04722 0.858283,-0.08725 1.005216,-0.438479 0.168647,-0.403132 0.57407,-0.38534 0.954441,-0.381444 1.66447,0.01705 3.329344,0.03461 4.993748,0.01273 0.570938,-0.0075 1.132604,0.01114 1.708682,0.116145 0.18849,0.03436 0.0034,0.08304 0.160412,0.253759 0.296114,0.32195 0.763683,0.415791 1.175784,0.507133 0.492712,0.10921 0.933655,0.338087 1.327267,0.705288 0.243354,0.227025 0.536237,0.532646 0.92715,0.487655 0.692147,-0.07966 1.292695,0.379888 1.802053,0.779167 0.499777,0.391768 1.11595,0.556235 1.705906,0.763705 0.435532,0.153164 0.87309,0.3647 1.355787,0.288226 0.446429,-0.07073 0.871306,0.140505 1.277153,0.293225 0.360062,0.135491 0.454121,0.438087 0.907421,0.526825 0.592336,0.115956 1.19386,0.09421 1.796371,0.09492 2.004556,0.0024 4.010778,-0.07172 6.01376,0.0051 0.481789,0.01848 0.955164,0.0015 1.427359,-0.229401 0.355748,-0.173952 0.731807,-0.413609 1.126819,-0.385068 0.517401,0.03738 1.022588,-0.46352 1.505851,-0.293643 0.368209,0.129433 0.657419,-0.515064 0.84139,-0.575438 0.352012,-0.11552 0.868926,-0.26669 0.885876,-0.626738 0.0237,-0.503274 0.53749,-0.479973 0.88874,-0.304638 0.41649,0.207903 0.54847,-0.03455 0.91523,-0.296689 0.43696,-0.312317 0.67927,-0.833029 1.19742,-1.061352 0.47054,-0.207343 0.89955,-0.553296 1.41967,-0.599491 0.40772,-0.03621 0.63388,-0.356198 0.91254,-0.59959 0.35085,-0.306441 0.74954,-0.409127 1.20818,-0.492174 0.64923,-0.117558 1.27499,-0.33448 1.85952,-0.638123 0.60658,-0.315095 1.30622,-0.299648 1.96875,-0.226313 0.56365,0.06239 1.16693,0.09079 1.67789,-0.186457 0.34806,-0.18886 0.74999,-0.109658 1.12588,-0.08441 0.6239,0.04191 1.22468,-0.143448 1.82924,-0.267601 0.69607,-0.142946 1.4078,-0.05244 2.11276,-0.05377 1.34796,-0.0025 2.70992,0.188635 4.04396,-0.0039 0.36415,-0.05256 0.70515,0.04973 1.0799,0.105686 0.4079,0.06091 0.4796,0.44926 0.75098,0.679511 0.47856,0.406026 1.13049,0.488269 1.60176,0.932732 0.33541,0.316331 0.57476,0.747875 0.96392,0.991939 0.51198,0.321093 1.15837,0.436664 1.54376,0.956353 0.31918,0.430401 0.51996,0.931502 0.81475,1.37952 0.31073,0.472249 0.86829,0.721152 1.09531,1.274774 0.25168,0.613756 0.83673,0.97859 1.28485,1.439392 0.4664,0.479595 0.88535,1.188125 1.57525,1.26388 0.36112,0.03965 0.72688,-3.92e-4 1.09155,0 2.59903,0.0028 5.21054,-0.248607 7.79715,0.0042 0.4206,0.04111 0.89563,0.0882 1.23954,-0.173624 0.38782,-0.295252 0.88417,0.07292 1.23756,-0.337761 0.27184,-0.315908 0.55865,-0.902671 1.04506,-0.727788 0.35143,0.126353 0.66457,-0.01674 0.88556,-0.350639 0.26205,-0.395939 0.80973,-0.32593 1.21548,-0.44748 0.42664,-0.127807 0.75897,-0.358947 1.12257,-0.67291 0.38229,-0.3301 0.89332,-0.19023 1.29724,-0.430048 0.34121,-0.202587 0.72451,-0.13444 1.08273,-0.263535 0.1437,-0.05179 0.93085,-0.259018 0.39178,-0.213247 -0.45538,0.03866 0.2255,-0.322156 0.38123,-0.312628 0.60273,0.03688 1.20923,0.01719 1.81361,0.01681 4.03521,-0.0025 8.07846,0.249339 12.10566,-0.0038 0.58652,-0.03687 1.1713,-0.0056 1.7564,0.06414 0.55786,0.06646 2.22707,0.29115 1.67526,0.185316 -0.19623,-0.03764 -0.96906,-0.02693 -0.52847,0.262546 0.41831,0.274836 0.96286,0.246076 1.36097,0.567451 0.3706,0.299164 0.95415,0.33178 1.21331,0.72836 0.25827,0.395218 0.78183,0.417923 1.08123,0.759089 0.33673,0.383707 0.71355,0.69201 1.17767,0.962947 0.41673,0.243273 0.74189,0.61621 1.06864,0.966514 0.29662,0.317999 0.54067,0.652834 0.76373,1.056347 0.18356,0.332063 -0.0281,0.763837 0.33253,0.999164 0.3735,0.243702 0.44546,0.718471 0.72736,1.042907 0.29634,0.34105 0.24496,0.780122 0.23831,1.206409 -0.007,0.435911 0.32382,0.672843 0.58719,1.048782 0.22921,0.327182 0.0847,0.885386 0.39993,1.061603 0.3929,0.219598 0.40417,0.7116 0.72087,1.010696 0.33461,0.316007 0.66143,0.629289 1.01791,0.931137 0.15229,0.128952 0.56329,0.499192 0.30015,0.07459 -0.29161,-0.470545 0.49854,-0.0829 0.65,0.03083 0.26479,0.198819 0.37523,0.635532 0.77211,0.621946 0.37695,-0.0129 0.75206,-0.0469 1.13123,-0.04711 2.99595,-0.0016 5.99657,0.163442 8.98788,-0.0024 0.39412,-0.02185 0.79828,-0.04005 1.16246,0.195653 0.38305,0.247916 0.83893,0.02023 1.25059,0.316043 0.29446,0.211596 0.82673,0.389854 0.79569,0.764798 -0.0409,0.493979 0.4188,0.867489 0.29796,1.429447 -0.15418,0.716998 0.28283,1.362584 0.31391,2.067945 0.0369,0.837052 -0.0253,1.673674 -0.025,2.511603 0.002,3.823661 -0.20943,7.653275 0.002,11.471015 0.0219,0.394115 0.0171,0.784432 -0.19565,1.162464 -0.22925,0.407285 0.009,0.895199 -0.41558,1.277445 -0.30461,0.273947 -0.35061,0.680994 -0.2862,1.07333 0.076,0.462735 -0.31431,0.793128 -0.42808,1.219149 -0.13316,0.498613 -0.56396,0.959656 -0.48089,1.468546 0.0714,0.43754 -0.0653,0.84644 -0.29099,1.2278 -0.32953,0.55671 -0.69906,1.12491 -0.73343,1.79129 -0.0269,0.52178 -0.4067,0.89879 -0.79289,1.21126 -0.51512,0.41679 -0.77096,1.04132 -1.17094,1.55723 -0.33987,0.43838 -1.42711,1.09564 -0.94367,1.37252 0.28417,0.16275 -0.10134,0.63759 -0.23313,0.87992 -0.25403,0.4671 -0.65691,0.82643 -0.9435,1.27696 -0.30069,0.4727 -0.43028,1.03182 -0.67306,1.53359 -0.10188,0.21056 0.17691,-0.23572 0.14206,0.0747 -0.0563,0.50187 0.19893,1.45804 -0.30492,1.48595 -0.0753,0.004 -0.12778,-0.48232 -0.30135,-0.11747 -0.16689,0.35081 -0.42655,0.71138 -0.39903,1.09933 0.0289,0.4074 0.0433,0.79618 -0.18733,1.1918 -0.19671,0.33748 0.14993,0.82942 -0.10679,1.12953 -0.31768,0.37137 -0.31054,0.84909 -0.30061,1.31305 0.0435,2.02998 0.0391,4.06068 0.0237,6.09096 -0.007,0.88826 0.14727,1.79135 -0.0116,2.66507 -0.0667,0.36662 0.0347,0.70986 0.19875,1.05075 0.37089,0.77067 0.78736,1.52058 1.12805,2.3051 0.15757,0.36284 0.22991,0.75395 0.18983,1.14786 -0.0413,0.40579 0.10437,0.6524 0.3604,1.03493 0.10749,0.1606 0.22996,-0.007 0.15111,0.29347 -0.1035,0.39434 0.35601,0.59193 0.40015,0.91097 0.053,0.38288 -0.15753,0.81868 0.13894,1.14769 0.39136,0.43431 -0.0368,1.02594 0.30067,1.50332 0.29338,0.41502 0.17732,0.95233 0.16417,1.42678 -0.0298,1.07548 -0.0143,2.15214 -0.0138,3.22816 2.6e-4,0.62846 0.0584,1.25922 0.009,1.88526 -0.0382,0.48888 -0.22961,0.94868 -0.29497,1.43416 -0.0497,0.36908 -0.44302,0.61564 -0.70076,0.86979 -0.60899,0.6005 -1.32153,1.11409 -1.82341,1.8064 -0.25112,0.3464 -0.74846,0.19643 -1.11483,0.19087 -2.24056,-0.034 -4.48191,0.0228 -6.72233,-0.0176 -0.88856,-0.016 -1.77577,0.0457 -2.66314,-0.0891 -1.35215,-0.20544 -2.82293,-0.269 -3.96411,-1.01779 -0.32648,-0.21422 -0.64633,-0.44637 -0.99178,-0.64703 -0.67389,-0.39144 -1.41421,-0.63691 -2.13217,-0.93336 -0.86264,-0.35619 -1.73649,-0.67847 -2.63023,-0.95522 -0.84138,-0.26054 -1.57774,-0.75717 -2.3195,-1.23622 -0.56287,-0.36352 -1.20106,-0.65878 -1.87228,-0.69578 -0.41473,-0.0229 -0.63223,-0.38047 -0.9209,-0.63639 -0.49432,-0.43823 -1.30126,-0.4469 -1.66275,-1.04125 -0.23338,-0.38371 -0.734,-0.39162 -1.02535,-0.70261 -0.9274,-0.98993 -1.97385,-1.86914 -2.84648,-2.90808 -0.37065,-0.44129 -0.97942,-0.50393 -1.43336,-0.81489 -0.68949,-0.47231 -1.11473,-1.86129 -1.94428,-1.56975 -0.48403,0.17011 -0.83251,-0.19552 -1.19133,-0.46605 -0.52229,-0.39378 -1.23054,0.1414 -1.74414,-0.26461 -0.39496,-0.31222 -0.91437,-0.15897 -1.37149,-0.15066 -0.57036,0.0104 -1.27838,0.35375 -1.71489,-0.0243 -0.3984,-0.34507 -0.92421,-0.29612 -1.42231,-0.28796 -1.22073,0.02 -2.4422,0.0191 -3.66316,0.009 -0.68278,-0.006 -1.37515,-0.10885 -2.0502,7e-4 -0.51439,0.0835 -0.67582,0.86154 -1.15745,0.87498 -0.24797,0.007 -0.31649,0.29346 -0.60241,0.29915 -0.25164,0.005 -0.32086,0.24414 -0.59913,0.306 -0.35953,0.0799 -0.74488,0.0572 -1.11496,0.0416 -0.37125,-0.0157 -0.77769,0.10943 -1.11628,-0.0424 -0.96224,-0.43146 -1.75359,-1.22502 -2.81042,-1.44942 -0.58333,-0.12386 -1.13904,-0.35267 -1.62571,-0.70471 -0.45928,-0.33223 -0.9674,-0.63964 -1.55076,-0.66766 -0.44349,-0.0213 -0.86594,-0.15355 -1.27085,-0.3323 -0.4684,-0.20678 -1.17977,-0.19524 -1.38775,-0.66604 -0.0948,-0.21466 0.72534,0.0166 0.18923,-0.0997 -1.12183,-0.24325 -2.19045,-0.798 -3.33743,-0.83989 -0.45233,-0.0165 -0.93933,0.0426 -1.26313,-0.35992 -0.29874,-0.37139 -0.75557,-0.22538 -1.14438,-0.41869 -0.35081,-0.17442 -0.73481,-0.15271 -1.11917,-0.15032 -0.87395,0.005 -1.74816,0.01 -2.62117,-0.0282 -0.51668,-0.0226 -0.9741,0.25891 -1.37683,0.54425 -0.28399,0.20121 -0.45381,0.26898 -0.90148,0.36158 -0.47091,0.0974 -0.84697,0.44745 -1.25164,0.69209 -0.39709,0.24006 -0.89158,0.25713 -1.29861,0.53497 -0.36414,0.24856 -0.77176,0.35263 -1.22285,0.2864 -0.49113,-0.0721 -0.79444,0.32706 -1.33194,0.32176 -1.57214,-0.0155 -3.14989,-0.12945 -4.71751,-0.006 -0.50545,0.0397 -1.01419,0.009 -1.50358,-0.1308 -0.51899,-0.1487 -1.05548,-0.17652 -1.596016,-0.1789 -0.667691,-0.003 -1.35719,0.16274 -2.004649,-0.002 -0.639653,-0.16287 -1.176448,-0.6336 -1.87303,-0.624 -0.361539,0.005 -0.754685,-0.12076 -1.084226,0.0334 -0.453345,0.2121 -0.925101,-0.0609 -1.266426,-0.34416 -0.43715,-0.36273 -1.02835,-0.30596 -1.553366,-0.24629 -0.424655,0.0483 -0.799946,-0.11674 -1.236742,-0.24084 -0.282272,-0.0802 -0.609708,-0.0329 -0.754073,-0.37136 -0.222453,-0.5216 -0.785716,-0.13391 -1.128355,-0.41263 -0.384946,-0.31314 -0.897917,-0.21435 -1.352261,-0.20378 -1.355408,0.0315 -2.711674,0.0252 -4.06743,0.0151 -0.874608,-0.006 -1.777512,0.20734 -2.624187,-0.0105 -0.478781,-0.12316 -0.882325,0.22999 -1.220877,0.51053 -0.876572,0.72636 -1.668137,1.545 -2.433919,2.38404 -0.283872,0.31103 -0.518432,0.61584 -0.702799,1.02451 -0.254863,0.56493 -0.411847,1.32446 -0.97593,1.5803 -0.368141,0.16697 -0.363229,0.37308 -0.498867,0.78088 -0.115414,0.347 -0.06836,0.73632 -0.01723,1.09618 0.04657,0.32777 -0.04275,0.43055 -0.311951,0.75192 -0.211817,0.25286 -0.606795,0.42095 -0.615647,0.79826 -0.01146,0.48841 0.167241,1.04032 -0.130496,1.45795 -0.282097,0.39569 0.04554,0.9336 -0.263438,1.27872 -0.29742,0.33221 -0.168724,0.76437 -0.180041,1.16397 -0.01078,0.38049 -0.328905,0.72962 -0.291522,1.0856 0.0534,0.50856 -0.494337,0.58021 -0.623497,1.13074 -0.109423,0.4664 -0.571268,0.70279 -0.715632,1.12693 -0.176016,0.51713 -0.621626,0.86404 -1.002307,1.22861 -0.338077,0.32377 -0.561257,1.05404 -1.020066,0.96772 -0.465509,-0.0876 -0.819109,0.31501 -1.26191,0.4235 -0.500456,0.12262 -0.952521,0.44548 -1.467888,0.46962 -0.362155,0.017 -0.772551,-0.15194 -1.084097,0.11722 -0.296243,0.25594 -0.604659,0.50827 -0.994633,0.59872 -0.359714,0.0834 -0.766517,0.39085 -1.122667,0.20971 -0.364993,-0.18564 -0.819301,-0.11029 -1.182551,0.0241 -0.644651,0.23849 -1.295862,0.56236 -1.985982,0.55867 -0.619406,-0.003 -1.239594,-0.01 -1.859686,-0.0122 -1.137074,-0.004 -2.276516,-0.0562 -3.410871,0.0211 -0.461395,0.0314 -0.865728,-0.23344 -1.163954,-0.58433 -0.409201,-0.48146 -1.073844,-0.6113 -1.575419,-0.96426 -0.366372,-0.25782 -0.83292,-0.0659 -1.198737,-0.27644 -0.345697,-0.19898 -0.481811,-0.64418 -0.899297,-0.75546 -0.402782,-0.10736 -0.536775,-0.45606 -1.046154,-0.46167 -0.431108,-0.005 -0.915048,-0.21682 -1.293777,-0.009 -0.39903,0.21898 -0.628418,0.6645 -0.992017,0.93165 -0.266663,0.19593 -0.420236,0.50614 -0.803372,0.60142 -0.345492,0.0859 -0.909104,0.0469 -1.042773,0.42854 -0.151769,0.43335 -0.486892,0.73894 -0.918638,0.94704 -0.648751,0.31269 -0.867713,1.24769 -1.568934,1.40603 -0.42284,0.0955 -0.556647,0.57482 -0.921109,0.74474 -0.398319,0.1857 -0.768609,0.17205 -1.263325,0.3365 -0.473122,0.15727 -0.961152,0.34441 -1.463283,0.36089 -0.590625,0.0194 -1.18912,-0.11618 -1.769972,0.0821 -0.442654,0.15113 -0.899342,0.19706 -1.37344,0.19778 -2.175628,0.003 -4.357638,-0.15944 -6.526952,0.005 -0.772893,0.0586 -1.569286,0.008 -2.284158,-0.37139 -0.443102,-0.23495 -1.208867,-0.0897 -1.402527,-0.55135 -0.02974,-0.0709 -0.54383,-0.37416 -0.752956,-0.50393 -0.353042,-0.21908 -0.7767,-0.32818 -1.039673,-0.68044 -0.38944,-0.52167 -1.055757,-0.70455 -1.477256,-1.19221 -0.370087,-0.42818 -0.831037,-0.75072 -1.306401,-1.05906 -0.647655,-0.4201 -1.24592,-0.93439 -1.664626,-1.5736 -0.256138,-0.39103 -0.280849,-0.87733 -0.504249,-1.29188 -0.346339,-0.64268 -0.770012,-1.25335 -1.010264,-1.94276 -0.175106,-0.50247 -0.0195,-1.0266 -0.07913,-1.55293 -0.05897,-0.52053 -0.35965,-0.94775 -0.492224,-1.455 -0.09313,-0.35633 -0.07898,-0.71955 -0.04483,-1.08473 0.05443,-0.58219 -0.658166,-0.82583 -0.675789,-1.3974 -0.01491,-0.48374 0.0408,-0.96544 0.0409,-1.45082 0.0012,-6.19556 -0.550419,-12.41581 0.0017,-18.58669 0.03423,-0.38256 0.07465,-0.7465 0.08137,-1.13002 0.01145,-0.65364 -0.728234,-1.01917 -0.699475,-1.68787 0.01831,-0.42576 0.09077,-0.85606 -0.171414,-1.26423 -0.349977,-0.54485 -0.819815,-1.02696 -1.066212,-1.62525 -0.272632,-0.66199 -0.299176,-1.42303 -0.758047,-2.00917 -0.38607,-0.49315 -0.828176,-0.95886 -1.036539,-1.56415 -0.18461,-0.53629 -0.975897,-0.8848 -0.861368,-1.43031 0.100324,-0.47785 -0.417918,-0.80602 -0.281616,-1.29849 0.13141,-0.47479 -0.310935,-0.82812 -0.322477,-1.25634 -0.01004,-0.37243 -0.20482,-0.72159 -0.31365,-1.07718 -0.101295,-0.33097 0.06509,0.23639 0.0726,0.0747 0.02821,-0.60737 0.112783,-1.38197 -0.33872,-1.7794 -0.255873,-0.22523 -0.354629,-0.51971 -0.349116,-0.9022 0.01616,-1.121191 0.146908,-2.250491 0.01779,-3.364633 -0.07098,-0.612444 0.262139,-1.198169 0.229794,-1.803556 -0.01515,-0.283614 0.0338,0.120348 0.23124,-0.11625 0.317111,-0.379998 0.395476,-0.9216 0.849469,-1.197639 0.449788,-0.273482 0.507775,-0.859784 0.872066,-1.192088 0.380395,-0.346994 0.887522,-0.611641 1.109591,-1.074809 0.07568,-0.157835 -0.09093,-0.516024 0.219346,-0.292357 0.263465,0.189923 0.720783,0.585208 0.770091,-0.04314 0.05711,-0.727762 -0.359729,-1.392311 -0.361104,-2.115009"
       id="path5250"
       inkscape:connector-curvature="0"
       inkscape:path-effect="#path-effect5252"
       inkscape:original-d="m 15.333807,91.34659 c 0.10022,-0.400883 0.232729,-0.795051 0.300662,-1.202653 0.06591,-0.395427 0,-0.801766 0,-1.20265 0,-0.601326 0,-1.202653 0,-1.803977 0,-0.300664 0,-0.601326 0,-0.901988 0,-0.100222 -0.03169,-0.205587 0,-0.300665 0.07087,-0.2126 0.229796,-0.388723 0.300663,-0.601323 0.03169,-0.09508 0,-0.200443 0,-0.300665 0,-0.348025 -0.06711,-1.234887 0,-1.503315 0.05435,-0.217408 0.229796,-0.388723 0.300663,-0.601324 0.106496,-0.319489 -0.106496,-0.883166 0,-1.202653 0.182024,-0.546071 0.257322,-0.557985 0.601326,-0.901988 0.100221,-0.100222 0.237278,-0.173892 0.300663,-0.300662 0.04482,-0.08964 -0.04482,-0.211024 0,-0.300664 0.06339,-0.12677 0.237277,-0.173893 0.300663,-0.300662 0.04482,-0.08964 -0.04482,-0.211024 0,-0.300662 0.06339,-0.126773 0.237277,-0.173892 0.300663,-0.300665 0.04482,-0.08964 -0.04482,-0.211021 0,-0.300662 0.06339,-0.12677 0.200441,-0.200443 0.300662,-0.300662 0.100221,-0.100221 0.200442,-0.200443 0.300663,-0.300664 0.327252,-0.327253 0.86648,-0.978538 1.202652,-1.202651 0.08339,-0.05559 0.211022,0.04482 0.300663,0 0.12677,-0.06339 0.173892,-0.237278 0.300663,-0.300664 0.08964,-0.04482 0.203434,0.02432 0.300662,0 0.307464,-0.07686 0.594525,-0.223795 0.901989,-0.300662 0.09723,-0.02432 0.205585,0.03169 0.300663,0 0.212601,-0.07087 0.383916,-0.246311 0.601326,-0.300662 0.382782,-0.0957 1.11284,0.09762 1.503314,0 0.307464,-0.07687 0.618521,-0.15893 0.901989,-0.300664 0.253541,-0.12677 0.332404,-0.511686 0.601325,-0.601324 0.190156,-0.06339 0.400884,0 0.601326,0 0.100221,0 0.211023,0.04482 0.300663,0 0.253541,-0.126773 0.332405,-0.511686 0.601325,-0.601327 0.190156,-0.06339 0.41117,0.06338 0.601326,0 0.137253,-0.04575 0.766583,-0.766582 0.901989,-0.901988 0.400883,-0.400884 0.801767,-0.80177 1.202653,-1.202653 0.100219,-0.100222 0.237275,-0.173892 0.300662,-0.300662 0.04482,-0.08964 0,-0.200443 0,-0.300662 0.100221,-0.200443 0.166203,-0.422047 0.300662,-0.601326 0.170082,-0.226775 0.400886,-0.400884 0.601326,-0.601327 0.100222,-0.100221 0.255844,-0.166203 0.300662,-0.300662 0.06339,-0.190156 -0.06338,-0.41117 0,-0.601326 0.04482,-0.134462 0.200443,-0.200443 0.300664,-0.300662 0.100222,-0.200443 0.229796,-0.388726 0.300662,-0.601327 0.358093,-1.074277 -1.164079,1.238584 0.300665,-1.202653 0.145841,-0.24307 0.431244,-0.374549 0.601324,-0.601323 0.134461,-0.179282 0.176355,-0.414864 0.300664,-0.601327 0.07862,-0.11793 0.248023,-0.169066 0.300662,-0.300662 0.153467,-0.383667 0.147196,-0.818986 0.300662,-1.202653 0.05264,-0.131596 0.200443,-0.20044 0.300665,-0.300662 0.501105,-0.501105 1.00221,-1.00221 1.503315,-1.503315 0.20044,-0.200443 0.431244,-0.374552 0.601323,-0.601326 0.134462,-0.179279 0.176356,-0.414861 0.300665,-0.601324 0.08496,-0.127442 0.777589,-0.83979 0.901988,-0.901991 0.08964,-0.04482 0.207611,0.03722 0.300662,0 0.624218,-0.249684 1.202653,-0.601324 1.803977,-0.901988 0.200443,-0.100219 0.388726,-0.229796 0.601327,-0.300662 0.190156,-0.06339 0.400883,0 0.601326,0 0.501105,0 1.00221,0 1.503315,0 0.07661,0 2.055482,-0.01966 2.104639,0 1.503314,0.601326 0,0.450995 0.901988,0.901988 0.283469,0.141735 0.618522,0.15893 0.901988,0.300662 0.126773,0.06339 0.200443,0.200443 0.300665,0.300665 0.20044,0.20044 0.365466,0.444084 0.601324,0.601326 0.08339,0.05559 0.205586,-0.03169 0.300664,0 2.177825,0.72594 -0.474027,-0.08668 0.901989,0.601324 0.283466,0.141735 0.618521,0.15893 0.901988,0.300665 0.323202,0.161599 0.592132,0.415411 0.901988,0.601323 0.192165,0.115301 0.414862,0.176356 0.601327,0.300665 0.550132,0.366755 0.03,0.383326 0.901988,0.601324 0.194456,0.04861 0.422045,-0.08964 0.601327,0 0.253539,0.126772 0.347784,0.474556 0.601324,0.601326 0.05991,0.02995 2.054039,0 2.104641,0 0.601326,0 1.20265,0 1.803977,0 0.200443,0 0.406868,0.04861 0.601326,0 0.307464,-0.07687 0.618519,-0.15893 0.901988,-0.300662 0.25354,-0.126772 0.332404,-0.511685 0.601327,-0.601326 0.190153,-0.06339 0.415219,0.07444 0.601324,0 1.772475,-0.708991 0.351298,-0.33442 1.202653,-0.901989 0.186462,-0.124309 0.414861,-0.176355 0.601324,-0.300661 0.11793,-0.07862 0.200443,-0.200443 0.300664,-0.300665 0.300662,-0.20044 0.592132,-0.415412 0.901988,-0.601324 0.192165,-0.1153 0.414862,-0.176355 0.601327,-0.300664 0.117927,-0.07862 0.182732,-0.222044 0.300662,-0.300662 2.098556,-1.399038 -1.478201,1.334148 1.503315,-0.901989 0.113387,-0.08504 0.1662,-0.255844 0.300662,-0.300664 0.190156,-0.06338 0.41117,0.06339 0.601326,0 0.134461,-0.04482 0.173892,-0.237276 0.300662,-0.300662 0.08964,-0.04482 0.203436,0.02431 0.300665,0 0.307461,-0.07687 0.594524,-0.223798 0.901988,-0.300662 0.712682,-0.17817 -0.133628,0.534511 1.20265,0 0.263195,-0.105278 0.365467,-0.444087 0.601327,-0.601327 0.05953,-0.03968 2.393333,0 2.405303,0 1.00221,0 2.00442,0 3.006627,0 0.251772,0 1.274673,-0.05716 1.503315,0 1.451885,0.362972 -0.0149,0.142881 0.901988,0.601327 0.566936,0.283467 1.260454,0.275209 1.80398,0.601324 0.24307,0.145843 0.374549,0.431247 0.601324,0.601326 0.85173,0.6388 0.31361,0.0784 1.202652,0.300662 0.690695,0.172675 1.376204,0.911278 2.104639,1.202653 0.294259,0.117703 0.601327,0.200441 0.901989,0.300662 0.300664,0.100222 0.589375,0.24856 0.901988,0.300665 0.296574,0.04943 0.612894,-0.0826 0.901991,0 2.287177,0.653478 0.108699,0.614912 2.405301,0.901988 0.39779,0.04972 0.801769,0 1.202652,0 1.202651,0 2.405304,0 3.607954,0 0.701548,0 1.403093,0 2.104641,0 0.400884,0 0.807223,0.0659 1.202651,0 0.221051,-0.03684 0.393253,-0.217435 0.601326,-0.300665 0.294259,-0.117702 0.594524,-0.223795 0.901989,-0.300662 0.09723,-0.02432 0.202387,0.01966 0.300661,0 0.405199,-0.08104 0.797457,-0.219622 1.202653,-0.300661 0.09828,-0.01966 0.217274,0.05559 0.300662,0 1.300456,-1.300457 -0.07965,-0.04712 1.202653,-0.901989 0.11793,-0.07862 0.173892,-0.237278 0.300665,-0.300664 0.21284,-0.916739 0.83305,-0.115864 1.20265,-0.300662 0.12677,-0.06339 0.17389,-0.237279 0.30066,-0.300665 0.0896,-0.04482 0.21728,0.05559 0.30066,0 0.34692,-0.231277 0.55507,-0.670708 0.90199,-0.901988 0.18647,-0.124309 0.40089,-0.200441 0.60133,-0.300662 0.20044,-0.100222 0.39325,-0.217435 0.60133,-0.300662 0.29425,-0.117705 0.61852,-0.15893 0.90198,-0.300665 0.12677,-0.06338 0.20044,-0.20044 0.30067,-0.300662 0.30066,-0.200443 0.57878,-0.439724 0.90198,-0.601326 0.0896,-0.04482 0.20239,0.01966 0.30067,0 0.40519,-0.08104 0.81063,-0.169989 1.20265,-0.300662 0.51201,-0.170669 0.97646,-0.484248 1.50331,-0.601326 0.78268,-0.173927 1.6116,0.113387 2.40531,0 0.31374,-0.04482 0.60132,-0.200443 0.90199,-0.300662 0.5011,0 1.00469,0.04986 1.50331,0 0.50849,-0.05085 0.99541,-0.244229 1.50331,-0.300665 0.39844,-0.04427 0.80177,0 1.20266,0 1.10243,0 2.20486,0 3.30729,0 0.40088,0 0.80176,0 1.20265,0 0.30066,0 0.61675,-0.09508 0.90199,0 1.41798,0.47266 0.49034,0.427117 1.20265,0.901989 0.37293,0.248618 0.85266,0.321336 1.20265,0.601326 0.33203,0.265621 0.60133,0.601326 0.90199,0.901988 0.10022,0.100222 0.17913,0.227743 0.30066,0.300665 0.62299,0.37379 1.10912,0.376396 1.50332,0.901988 0.21681,0.289081 0.41541,0.592133 0.60132,0.901989 0.1153,0.192164 0.1662,0.422045 0.30066,0.601326 0.25513,0.340159 0.66613,0.548198 0.90199,0.901989 0.12431,0.186462 0.16621,0.422044 0.30067,0.601323 0.25512,0.340162 0.60132,0.601327 0.90198,0.901989 0.45232,0.452316 1.14737,1.339165 1.80398,1.503315 0.19446,0.04861 0.40089,0 0.60133,0 0.20044,0 0.40088,0 0.60132,0 1.00221,0 2.00442,0 3.00663,0 1.10243,0 2.20486,0 3.30729,0 0.40089,0 0.80177,0 1.20266,0 0.30066,0 0.60541,0.04943 0.90198,0 0.31262,-0.0521 0.59122,-0.238509 0.90199,-0.300662 0.19655,-0.03931 0.42945,0.103126 0.60133,0 0.3646,-0.218766 0.52167,-0.711833 0.90199,-0.901989 0.26892,-0.134461 0.6103,0.07292 0.90199,0 0.275,-0.06875 0.33813,-0.496048 0.60132,-0.601326 0.38367,-0.153466 0.81899,-0.147196 1.20265,-0.300662 0.1316,-0.05264 0.18274,-0.222044 0.30067,-0.300665 0.18646,-0.124309 0.40088,-0.20044 0.60132,-0.300662 0.20044,-0.100221 0.38873,-0.229795 0.60133,-0.300661 0.0951,-0.03169 0.20343,0.02432 0.30066,0 0.30746,-0.07687 0.59453,-0.223798 0.90199,-0.300665 0.0972,-0.02432 0.20558,0.03169 0.30066,0 2.17783,-0.725943 -0.47403,0.08668 0.90199,-0.601324 0.0896,-0.04482 0.20044,0 0.30066,0 0.50111,0 1.00221,0 1.50332,0 1.10243,0 2.20486,0 3.30729,0 2.10464,0 4.20928,0 6.31392,0 1.6127,0 0.7926,0 2.4053,0 0.50111,0 1.00608,-0.06216 1.50332,0 4.4964,0.562049 0.35037,-0.125476 1.80397,0.601324 0.28347,0.141735 0.61853,0.15893 0.90199,0.300665 0.3232,0.161599 0.59214,0.415411 0.90199,0.601323 0.19217,0.115301 0.41487,0.176356 0.60133,0.300665 0.11793,0.07862 0.18273,0.222041 0.30066,0.300662 0.18646,0.124309 0.42204,0.166203 0.60133,0.300662 0.34016,0.255122 0.54819,0.666131 0.90198,0.901991 0.18647,0.124306 0.41487,0.176353 0.60133,0.300662 0.17931,0.119538 1.437,1.392795 1.50332,1.503315 0.16305,0.271761 0.22379,0.594524 0.30066,0.901988 0.0243,0.09723 -0.0556,0.217273 0,0.300662 0.15724,0.23586 0.43124,0.374552 0.60132,0.601326 0.13446,0.179282 0.20044,0.400884 0.30067,0.601327 0.10022,0.20044 0.25671,0.381577 0.30066,0.601324 0.059,0.294825 -0.0729,0.610303 0,0.901988 0.0344,0.137504 0.22204,0.182735 0.30066,0.300665 0.12431,0.186462 0.20044,0.400883 0.30066,0.601326 0.10023,0.20044 0.2298,0.388723 0.30067,0.601324 0.0317,0.09508 -0.0448,0.211024 0,0.300664 0.0634,0.12677 0.22204,0.182732 0.30066,0.300662 0.12431,0.186463 0.17635,0.414862 0.30066,0.601327 0.0786,0.11793 0.20045,0.20044 0.30067,0.300662 0.20044,0.200443 0.37455,0.431244 0.60132,0.601326 1.84571,1.384282 -0.57543,-0.58838 1.20265,0.300662 0.25354,0.12677 0.33814,0.496049 0.60133,0.601327 0.27916,0.111662 0.60132,0 0.90199,0 1.20952,0 0.59445,0 1.80398,0 2.00441,0 4.00883,0 6.01325,0 0.50111,0 1.00221,0 1.50332,0 0.30066,0 0.60716,-0.05897 0.90199,0 0.21975,0.04395 0.38391,0.246311 0.60132,0.300662 0.19446,0.04861 0.40687,-0.04861 0.60133,0 0.28744,0.07186 1.05269,0.602067 1.20265,0.901988 0.0448,0.08964 -0.0317,0.205586 0,0.300664 0.0709,0.212601 0.24631,0.383916 0.30066,0.601324 0.0972,0.388917 -0.0659,0.807223 0,1.202653 0.0679,0.407599 0.24941,0.79262 0.30067,1.202651 0.087,0.696129 0,1.403093 0,2.104641 0,1.20265 0,2.405303 0,3.607953 0,2.00442 0,4.00884 0,6.01326 0,0.801767 0,1.603534 0,2.4053 0,0.300665 0.059,0.607166 0,0.901991 -0.0439,0.219747 -0.24632,0.383916 -0.30067,0.601324 -0.0486,0.194458 0.0744,0.415221 0,0.601327 -0.1342,0.335507 -0.48705,0.559181 -0.60133,0.901988 -0.0951,0.285234 0.059,0.607166 0,0.901989 -0.0439,0.219749 -0.21743,0.393252 -0.30066,0.601326 -0.1177,0.294259 -0.20044,0.601326 -0.30066,0.901988 -0.10022,0.30066 -0.23851,0.59122 -0.30066,0.90199 -0.0393,0.19655 0.0634,0.41117 0,0.60133 -0.21047,0.63139 -0.69153,1.17258 -0.90199,1.80397 -0.13067,0.39202 -0.0956,0.84388 -0.30066,1.20265 -0.21096,0.36918 -0.62979,0.57534 -0.90199,0.90199 -0.23134,0.2776 -0.3913,0.60795 -0.60133,0.90199 -0.29126,0.40777 -0.62402,0.78571 -0.90199,1.20265 -0.87116,1.30674 0.37657,-0.20799 -0.60132,1.50332 -0.82999,1.45247 -0.77022,0.7229 -1.20265,1.80397 -0.872,2.17999 0.0206,-0.10294 -0.30067,1.50332 -0.51118,2.55594 -0.0151,-0.85664 -0.90199,1.80398 -0.0951,0.28523 0.059,0.60716 0,0.90198 -0.044,0.21975 -0.20044,0.40089 -0.30066,0.60133 0,0.30066 0.059,0.60716 0,0.90199 -0.0439,0.21975 -0.25671,0.38158 -0.30066,0.60132 -0.0551,0.27548 0,1.81029 0,2.10464 0,1.10244 0,2.20487 0,3.3073 0,0.90198 0,1.80397 0,2.70596 0,0.40089 0,0.80177 0,1.20265 0,0.30067 -0.0826,0.6129 0,0.90199 0.004,0.0138 1.18508,2.36432 1.20265,2.4053 0.12484,0.29131 0.23851,0.59122 0.30066,0.90199 0.0233,0.11646 -0.0247,1.1532 0,1.20266 1.36871,1.3687 0.15893,-0.12454 0.60133,1.20265 0.0448,0.13446 0.26629,0.16316 0.30066,0.30066 0.0729,0.29169 -0.059,0.60716 0,0.90199 0.0439,0.21975 0.25671,0.38157 0.30066,0.60132 0.059,0.29483 -0.059,0.60717 0,0.90199 0.0439,0.21975 0.25672,0.38158 0.30067,0.60133 0.0983,0.49137 0,1.00221 0,1.50331 0,0.80177 0,1.60354 0,2.40531 0,0.60132 0,1.20265 0,1.80397 0,0.20044 0.0329,0.40361 0,0.60133 -0.0679,0.4076 -0.21963,0.79745 -0.30067,1.20265 -0.0197,0.0983 0.0601,0.22049 0,0.30066 -0.28826,0.38435 -1.38727,1.38728 -1.80397,1.80398 -0.20045,0.20044 -0.40089,0.40088 -0.60133,0.60133 -0.10022,0.10022 -0.1662,0.25584 -0.30066,0.30066 -0.12968,0.0432 -1.98708,0 -2.10464,0 -1.10243,0 -2.20486,0 -3.30729,0 -0.90199,0 -1.80398,0 -2.70597,0 -0.5011,0 -1.00427,0.0454 -1.50331,0 -0.77736,-0.0707 -2.18472,-0.35475 -3.00663,-0.60133 -3.07537,-0.92261 -0.59942,-0.14938 -3.3073,-1.50331 -0.48272,-0.24137 -1.00221,-0.40089 -1.50331,-0.60133 -0.5011,-0.20044 -0.9961,-0.41688 -1.50331,-0.60132 -0.59569,-0.21662 -1.22694,-0.33904 -1.80398,-0.60133 -1.8043,-0.82014 -1.04455,-0.88028 -2.70597,-1.50331 -0.38691,-0.1451 -0.83305,-0.11587 -1.20265,-0.30067 -0.25354,-0.12677 -0.36546,-0.44408 -0.60132,-0.60132 -0.37293,-0.24862 -0.82973,-0.35271 -1.20265,-0.60133 -0.23586,-0.15724 -0.37456,-0.43124 -0.60133,-0.60132 -0.17928,-0.13446 -0.42205,-0.16621 -0.60133,-0.30067 -0.22677,-0.17008 -0.40088,-0.40088 -0.60132,-0.60132 -0.60133,-0.60133 -1.20265,-1.20265 -1.80398,-1.80398 -0.30066,-0.30066 -0.56183,-0.64687 -0.90199,-0.90199 -0.35856,-0.26892 -0.84409,-0.3324 -1.20265,-0.60132 -0.69741,-0.52306 -0.93086,-1.15407 -1.80398,-1.50332 -0.1861,-0.0744 -0.41522,0.0744 -0.60132,0 -0.33551,-0.1342 -0.55454,-0.50205 -0.90199,-0.60132 -0.38546,-0.11013 -0.80722,0.0659 -1.20265,0 -0.22105,-0.0368 -0.38158,-0.25672 -0.60133,-0.30067 -0.29482,-0.059 -0.60132,0 -0.90199,0 -0.60132,0 -1.21083,0.0989 -1.80397,0 -0.22106,-0.0368 -0.38028,-0.26382 -0.60133,-0.30066 -0.39543,-0.0659 -0.80177,0 -1.20265,0 -1.10243,0 -2.20486,0 -3.30729,0 -0.20393,0 -1.8495,-0.0638 -2.10464,0 -0.4854,0.12135 -0.59636,0.2957 -0.90199,0.60133 -0.10022,0.10022 -0.1739,0.23727 -0.30066,0.30066 -0.0896,0.0448 -0.21103,-0.0448 -0.30067,0 -0.12677,0.0634 -0.17389,0.23728 -0.30066,0.30066 -0.0896,0.0448 -0.21102,-0.0448 -0.30066,0 -0.12677,0.0634 -0.16621,0.25584 -0.30067,0.30067 -0.10283,0.0343 -2.04534,0.0148 -2.10464,0 -0.21741,-0.0544 -0.40675,-0.18948 -0.60132,-0.30067 -0.50739,-0.28993 -0.98063,-0.64064 -1.50332,-0.90199 -0.56693,-0.28346 -1.23704,-0.31786 -1.80397,-0.60132 -0.52269,-0.26135 -0.96073,-0.68496 -1.50332,-0.90199 -0.47448,-0.18979 -1.02883,-0.11087 -1.50331,-0.30066 -4.33452,-1.73381 0.81503,-0.32241 -2.70597,-1.20266 -0.80177,-0.20044 -1.5901,-0.46546 -2.4053,-0.60132 -0.19772,-0.0329 -0.41522,0.0744 -0.60133,0 -0.3355,-0.1342 -0.57878,-0.43973 -0.90199,-0.60133 -0.0896,-0.0448 -0.20343,0.0243 -0.30066,0 -0.30746,-0.0769 -0.59452,-0.22379 -0.90199,-0.30066 -0.19445,-0.0486 -0.40088,0 -0.60132,0 -0.50111,0 -1.00221,0 -1.50332,0 -0.32829,0 -1.30887,-0.0648 -1.50331,0 -0.2126,0.0709 -0.40088,0.20044 -0.60133,0.30066 -0.20044,0.10022 -0.41486,0.17636 -0.60132,0.30067 -0.11793,0.0786 -0.16621,0.25584 -0.30067,0.30066 -0.19015,0.0634 -0.41709,-0.079 -0.60132,0 -0.74268,0.31829 -1.3381,0.94714 -2.10464,1.20265 -0.0951,0.0317 -0.20559,-0.0317 -0.30067,0 -0.2126,0.0709 -0.38157,0.25671 -0.60132,0.30066 -0.29483,0.059 -0.60717,-0.059 -0.90199,0 -0.21975,0.0439 -0.38391,0.24631 -0.60132,0.30067 -0.19446,0.0486 -0.40089,0 -0.60133,0 -0.60133,0 -1.20265,0 -1.80398,0 -0.90199,0 -1.80397,0 -2.70596,0 -0.30067,0 -0.60365,0.0373 -0.90199,0 -0.50709,-0.0634 -0.99541,-0.24423 -1.50332,-0.30067 -0.40589,-0.0451 -2.42409,0.0564 -2.705962,0 -0.529227,-0.10584 -0.97409,-0.49548 -1.503314,-0.60132 -0.491374,-0.0983 -1.005277,0.0553 -1.503315,0 -0.775841,0.31091 -1.182434,-0.47702 -1.803977,-0.60133 -0.58965,-0.11793 -1.214329,0.11793 -1.803977,0 -0.219749,-0.0439 -0.388726,-0.22979 -0.601326,-0.30066 -0.09508,-0.0317 -0.217273,0.0556 -0.300665,0 -0.235857,-0.15724 -0.365466,-0.44409 -0.601324,-0.60133 -0.166777,-0.11118 -0.41117,0.0634 -0.601326,0 -0.212601,-0.0709 -0.383916,-0.24631 -0.601327,-0.30066 -0.228642,-0.0572 -1.251542,0 -1.503314,0 -1.002208,0 -2.004418,0 -3.006628,0 -0.701548,0 -1.403093,0 -2.104641,0 -0.300662,0 -0.601324,0 -0.901988,0 -0.200441,0 -0.415219,-0.0744 -0.601327,0 -0.817726,0.32709 -2.082895,1.78223 -2.705965,2.4053 -0.20044,0.20045 -0.431244,0.37456 -0.601326,0.60133 -0.134459,0.17928 -0.176353,0.41486 -0.300662,0.60133 -0.07862,0.11792 -0.200441,0.20044 -0.300662,0.30066 -0.100222,0.20044 -0.185365,0.40916 -0.300665,0.60132 -0.185912,0.30986 -0.384513,0.61291 -0.601324,0.90199 -0.08504,0.11339 -0.237278,0.1739 -0.300664,0.30067 -0.04482,0.0896 0.04482,0.21102 0,0.30066 -0.06338,0.12677 -0.237276,0.17389 -0.300662,0.30066 -0.0669,0.13379 0.04584,1.06513 0,1.20265 -0.04482,0.13446 -0.237278,0.17389 -0.300662,0.30067 -0.04482,0.0896 0,0.20044 0,0.30066 -0.200443,0.20044 -0.444087,0.36546 -0.601326,0.60132 -0.04237,0.0635 0.02527,1.07633 0,1.20266 -0.06216,0.31077 -0.223798,0.59452 -0.300665,0.90198 -0.04861,0.19446 0.06339,0.41117 0,0.60133 -0.07087,0.2126 -0.229796,0.38873 -0.300662,0.60133 -0.09508,0.28523 0.05897,0.60716 0,0.90198 -0.06215,0.31078 -0.182959,0.60773 -0.300662,0.90199 0.167312,0.39132 -0.478263,0.65586 -0.601326,0.90199 -0.04482,0.0896 0,0.20044 0,0.30066 -0.100222,0.20045 -0.176356,0.41487 -0.300662,0.60133 -0.07862,0.11793 -0.222044,0.18273 -0.300665,0.30066 -0.124309,0.18647 -0.1662,0.42205 -0.300662,0.60133 -0.195566,0.26076 -1.687978,1.71697 -1.803976,1.80398 -0.08018,0.0601 -0.205587,-0.0317 -0.300665,0 -0.212601,0.0709 -0.393253,0.21743 -0.601324,0.30066 -0.294259,0.1177 -0.601326,0.20044 -0.901988,0.30066 -0.300665,0.10022 -0.589375,0.24856 -0.901991,0.30066 -0.296572,0.0494 -0.616755,-0.0951 -0.901989,0 -0.342807,0.11427 -0.563644,0.47445 -0.901988,0.60133 -2.209035,0.82839 -0.750533,0.0249 -2.405303,0.30066 -0.312613,0.0521 -0.601324,0.20044 -0.901989,0.30067 -0.400883,0.10022 -0.793583,0.24222 -1.20265,0.30066 -0.29764,0.0425 -0.601326,0 -0.901988,0 -1.00221,0 -2.00442,0 -3.00663,0 -0.255079,0 -1.604497,0.0499 -1.803977,0 -0.727765,-0.18194 -0.603633,-0.45272 -1.202653,-0.90199 -0.118343,-0.0888 -1.672386,-0.86909 -1.803976,-0.90199 -0.194456,-0.0486 -0.422045,0.0896 -0.601324,0 -0.253543,-0.12677 -0.374552,-0.43124 -0.601327,-0.60132 -0.179281,-0.13446 -0.414864,-0.17636 -0.601326,-0.30067 -0.11793,-0.0786 -0.173892,-0.23728 -0.300662,-0.30066 -0.06739,-0.0337 -1.131205,0 -1.202653,0 -0.100222,0 -0.20044,0 -0.300662,0 -0.100222,0 -0.217273,-0.0556 -0.300662,0 -0.336172,0.22411 -0.8754,0.8754 -1.202653,1.20265 -0.100221,0.10022 -0.173892,0.23728 -0.300662,0.30066 -0.08964,0.0448 -0.200443,0 -0.300664,0 -0.300662,0.10022 -0.648446,0.11051 -0.901989,0.30067 -0.182562,0.36512 -0.256979,0.67242 -0.601324,0.90199 -0.186465,0.12431 -0.422047,0.1662 -0.601326,0.30066 -0.370475,0.27786 -0.819888,0.94747 -1.202653,1.20265 -0.186462,0.12431 -0.414861,0.17635 -0.601324,0.30066 -0.23586,0.15724 -0.332406,0.51169 -0.601326,0.60133 -0.190156,0.0634 -0.406869,-0.0486 -0.601327,0 -0.217408,0.0543 -0.400883,0.20044 -0.601326,0.30066 -0.400884,0.10022 -0.795052,0.23273 -1.20265,0.30067 -0.494287,0.0824 -1.007245,-0.0709 -1.503315,0 -0.409067,0.0584 -0.795052,0.23272 -1.202651,0.30066 -0.197715,0.0329 -0.400883,0 -0.601326,0 -0.801767,0 -1.603537,0 -2.405303,0 -1.302872,0 -2.605744,0 -3.908618,0 -0.501105,0 -1.009026,0.0824 -1.503313,0 -0.85472,-0.14246 -0.802277,-0.32091 -1.503315,-0.60133 -2.000521,-0.80021 0.223367,0.31442 -1.803978,-0.90199 -0.192164,-0.1153 -0.422044,-0.1662 -0.601325,-0.30066 -0.226774,-0.17008 -0.379975,-0.42424 -0.601326,-0.60133 -0.282168,-0.22573 -0.601326,-0.40088 -0.901989,-0.60132 -0.300663,-0.30066 -0.57534,-0.62978 -0.901988,-0.90199 -0.277598,-0.23133 -0.619821,-0.37559 -0.901989,-0.60133 -0.442702,-0.35416 -0.801768,-0.80176 -1.202651,-1.20265 -0.100221,-0.10022 -0.237278,-0.17389 -0.300663,-0.30066 -0.141734,-0.28347 -0.18296,-0.60773 -0.300663,-0.90199 -0.08323,-0.20807 -0.200442,-0.40088 -0.300663,-0.60132 -0.200442,-0.40089 -0.400884,-0.80177 -0.601326,-1.20266 -0.100221,-0.20044 -0.263821,-0.38027 -0.300663,-0.60132 -0.06591,-0.39543 0.05669,-0.8058 0,-1.20265 -0.159025,-1.11318 -0.395528,-0.66406 -0.601325,-2.10464 -0.04252,-0.29765 0.09508,-0.61676 0,-0.90199 -0.11427,-0.34281 -0.502055,-0.55454 -0.601326,-0.90199 -0.110131,-0.38546 0,-0.80177 0,-1.20265 0,-1.10243 0,-2.20486 0,-3.30729 0,-3.40752 0,-6.81503 0,-10.22254 0,-1.20265 0,-2.4053 0,-3.60796 0,-0.60132 0,-1.20265 0,-1.80397 0,-0.30067 0.04252,-0.60435 0,-0.90199 0.347987,-0.78264 -0.497121,-1.17875 -0.601326,-1.80398 -0.06591,-0.39543 0.110131,-0.81719 0,-1.20265 -0.01175,-0.0411 -1.156997,-1.71267 -1.202651,-1.80398 -0.283468,-0.56693 -0.286847,-1.25364 -0.601326,-1.80397 -0.248618,-0.43509 -0.624026,-0.78571 -0.901989,-1.20266 -0.248617,-0.37292 -0.370728,-0.81832 -0.601325,-1.20265 -0.185914,-0.30985 -0.439725,-0.57878 -0.601326,-0.90199 -0.04482,-0.0896 0.03169,-0.20558 0,-0.30066 -0.07087,-0.2126 -0.200442,-0.40088 -0.300663,-0.60132 0,-0.30067 0.05897,-0.60717 0,-0.90199 -0.04395,-0.21975 -0.229796,-0.38873 -0.300663,-0.60133 -0.03169,-0.0951 0.02431,-0.20343 0,-0.30066 -0.84801,-2.54403 0.0054,0.33319 -0.300663,-1.50332 -0.100221,-0.40088 -0.200442,-0.80176 -0.300663,-1.20265 -0.100221,-0.10022 -0.266287,-0.16316 -0.300663,-0.30066 -0.06694,-0.26776 0,-1.70537 0,-2.10464 0,-0.501105 0,-1.00221 0,-1.503315 0,-0.300664 -0.05896,-0.607166 0,-0.901988 0.486235,-2.431177 -0.04339,-0.536244 0.601326,-1.503315 0.124309,-0.186465 0.166202,-0.422045 0.300663,-0.601326 0.255121,-0.340162 0.666129,-0.548199 0.901989,-0.901989 0.124308,-0.186462 0.176354,-0.414861 0.300663,-0.601326 0.07862,-0.11793 0.200441,-0.200441 0.300662,-0.300662 0.200442,-0.200443 0.400884,-0.400884 0.601326,-0.601327 0.100221,-0.100221 0.237278,-0.173892 0.300663,-0.300662 0.04482,-0.08964 -0.100221,-0.300664 0,-0.300664 0.316926,0 0.801768,0.601326 0.901989,0.300664 0.255514,-0.766543 -0.300663,-1.597297 -0.300663,-2.405303" />
    <path
       style="fill:none;fill-rule:evenodd;stroke:#000000;stroke-width:0.26458332px;stroke-linecap:butt;stroke-linejoin:miter;stroke-opacity:1"
       d="m 22.850378,173.72822 c -0.150583,-0.57392 -0.588642,-1.2211 -0.312695,-1.76112 0.149885,-0.29332 0.452375,-0.4839 0.688524,-0.71935 0.364335,-0.36325 0.637986,-0.84406 1.08228,-1.10048 0.376046,-0.21703 0.974983,-0.11093 1.177424,-0.5486 0.183793,-0.39735 0.593512,-0.27593 0.972422,-0.3804 0.285945,-0.0788 0.51131,-0.41511 0.825771,-0.3092 0.342502,0.11535 0.59599,-0.17223 0.898865,-0.26582 0.325235,-0.1005 0.66857,-0.0261 1.004757,-0.0263 3.625275,-0.002 7.250981,0.044 10.875875,-0.003 0.409372,-0.005 0.808893,0.12043 1.209929,0.19584 0.226176,0.0425 0.854794,0.15497 0.800944,0.14059 -0.159587,-0.0426 -0.922421,-0.0546 -0.503217,0.14574 0.31399,0.15009 0.426572,0.67232 0.90433,0.47708 0.290194,-0.11859 0.606026,-0.0711 0.854331,0.12421 0.294293,0.23148 0.669298,0.0754 1.004025,0.0929 0.380453,0.0198 0.640124,0.42848 1.04649,0.34288 0.315085,-0.0664 0.634293,-0.0346 0.927137,0.12532 0.394286,0.2153 0.77605,0.49569 1.272463,0.4584 0.490892,-0.0369 0.89393,0.30752 1.387915,0.33467 0.790053,0.0434 1.603814,-0.19043 2.371868,0.0921 0.422487,0.15541 0.864485,0.17812 1.316699,0.17902 1.214464,0.002 2.513483,-0.44101 3.643477,0.004 0.423139,0.16652 0.706319,-0.16901 0.965768,-0.46735 0.35032,-0.40283 1.042097,-0.20713 1.33653,-0.68477 0.162184,-0.2631 0.433185,-0.40113 0.709076,-0.5341 0.530044,-0.25546 0.878989,-0.755 1.270488,-1.17568 0.490234,-0.52678 0.972119,-1.08383 1.615811,-1.42869 0.586171,-0.31404 0.955321,-1.26974 1.6122,-1.14876 0.35113,0.0647 0.652077,-0.0391 0.978213,-0.21466 0.334706,-0.18014 0.536269,-0.17714 1.013291,-0.33365 0.358334,-0.11757 0.764957,-0.0614 1.141083,-0.0443 1.019622,0.0465 2.060721,-0.20358 3.059668,0.005 0.348311,0.0728 0.62407,0.28785 0.859494,0.56386 0.392615,0.4603 0.983846,0.63453 1.537849,0.82456 0.328915,0.11282 0.744448,0.14437 0.958769,0.42158 0.257499,0.33306 0.666636,0.50037 1.038941,0.66784 1.015203,0.45666 2.283105,0.29284 3.160505,1.01763 0.345023,0.28501 0.73273,0.51768 1.176693,0.61398 0.476991,0.10346 0.866164,0.40784 1.332217,0.55177 0.746754,0.23062 1.485002,0.4815 2.193782,0.82348 0.491698,0.23724 0.992376,0.58939 1.546776,0.55958 0.793465,-0.0427 1.58921,-0.0264 2.383769,-0.0214 0.791404,0.005 1.592012,-0.10967 2.374415,0.008 0.369819,0.0557 0.79432,0.0756 1.077198,-0.21851 0.274646,-0.28559 0.647119,-0.50249 1.061145,-0.39719 0.320322,0.0815 0.596419,-0.11166 0.887409,-0.23325 0.415895,-0.17378 0.863332,-0.31836 1.313745,-0.36186 0.416166,-0.0402 0.843955,0.0756 1.248308,-0.13619 0.440973,-0.23103 0.75491,-0.76903 1.265483,-0.79108 0.355016,-0.0153 0.711696,0.0878 1.063577,0.0272 0.550028,-0.0947 0.916737,-0.68772 1.5137,-0.61752 0.325784,0.0383 0.680638,0.0677 0.96284,-0.14373 0.38228,-0.28639 1.03903,-0.13206 1.288605,-0.53823 0.20196,-0.32868 0.46062,-0.51193 0.92861,-0.4886 0.32195,0.0161 0.55879,0.0373 0.74876,-0.3185 0.22875,-0.42847 0.73735,-0.39947 1.13246,-0.27002 0.43087,0.14116 0.54124,-0.38748 0.89456,-0.44829 0.32403,-0.0558 0.45727,-0.48393 0.74705,-0.49402 0.83701,-0.0291 1.6769,0.10476 2.51048,0.029 0.53106,-0.0483 0.89339,-0.71134 1.40586,-0.62551 0.47527,0.0796 0.72264,-0.49174 1.00045,-0.80106 0.2,-0.22268 0.331,-0.73818 0.75512,-0.49375 0.29044,0.16739 0.54205,0.0727 0.8343,-0.16886 0.41401,-0.34215 0.95063,-0.53705 1.26696,-0.99509 0.30392,-0.44007 0.9073,-0.3289 1.31091,-0.62319 0.214,-0.15604 0.25804,-0.33696 0.48034,-0.59251 0.32423,-0.37273 0.86033,-0.40882 1.18373,-0.795 0.26726,-0.31915 0.52761,-0.69262 0.94847,-0.80379 0.33558,-0.0886 0.49356,-0.40059 0.78384,-0.57341 0.29194,-0.17381 0.61455,-0.2538 0.91911,-0.42147 0.31958,-0.17594 0.44446,-0.56919 0.81722,-0.69344 0.24942,-0.0831 0.63139,-0.0139 0.74825,-0.24942 0.1735,-0.34968 0.54992,-0.3337 0.8898,-0.32507 1.73468,0.044 3.47012,0.0285 5.2052,0.0244 1.52633,-0.004 3.08242,0.29318 4.57908,-0.006 0.50946,-0.10168 0.93928,0.29802 1.42633,0.31645 0.51608,0.0195 1.0773,-0.20874 1.55417,0.0386 0.37844,0.19628 0.64537,0.60757 1.14929,0.57212 0.58112,-0.0409 1.16575,-0.026 1.74845,-0.0196 0.99675,0.0109 2.02511,-0.25074 2.99077,0 0.28958,0.0752 0.48984,0.32796 0.82507,0.32088 0.47852,-0.0101 0.98324,-0.1261 1.43279,0.0761 0.42985,0.19329 0.93725,0.0676 1.33228,0.29569 0.38203,0.22054 0.82468,0.0924 1.22047,0.20937 0.39682,0.11729 0.46105,0.60327 0.78605,0.77712 0.51941,0.27784 1.13809,-0.0597 1.66002,0.13383 0.26809,0.0994 0.47499,0.30611 0.7937,0.31119 1.10891,0.0177 2.21756,-0.0191 3.32673,-0.0195 1.41634,-5.3e-4 2.83307,-0.0217 4.24883,0.0198 0.33693,0.01 0.68877,0.0205 0.91445,-0.31332 0.24639,-0.36441 0.69454,-0.54627 1.12045,-0.60568 0.40025,-0.0558 0.88355,0.17999 1.20874,-0.1075 0.27686,-0.24476 0.64728,-0.19552 0.99443,-0.19596 2.03543,-0.003 4.08476,0.23182 6.10638,-0.004 0.3669,-0.0428 0.77212,-0.09 1.08731,0.15656 0.34053,0.2664 0.69159,0.51703 1.09297,0.69175 0.37091,0.16146 0.71633,0.36238 1.01363,0.65891 0.38912,0.38811 0.70356,0.86688 1.15895,1.17291 0.39502,0.26546 0.98811,0.25581 1.26258,0.65336 0.42524,0.61592 0.72512,1.33526 1.25612,1.86177 0.26238,0.26016 0.56387,0.49304 0.69759,0.86144 0.21223,0.58472 0.88265,0.80561 1.15314,1.36213 0.21302,0.43827 0.59845,0.90344 0.49067,1.37891 -0.0941,0.41493 0.34079,0.67902 0.32266,1.10729 -0.0164,0.38654 -0.17149,0.81788 0.10391,1.15803 0.27252,0.33659 0.62599,0.70771 0.50607,1.18347 -0.10692,0.4242 -0.0624,0.87282 0.15171,1.24929 0.1784,0.31374 0.0964,0.64361 0.29553,0.97339 0.24317,0.40266 0.15146,0.90018 0.13441,1.34602 -0.0346,0.90375 -0.0168,1.80894 -0.0168,2.71336 0,1.14123 -0.33435,2.33255 0,3.4237 0.12346,0.40291 -0.56664,0.52129 -0.56374,0.86441 0.002,0.23224 -0.16115,0.3642 -0.30973,0.59479 -0.25595,0.39722 -0.2449,0.88415 -0.37154,1.32405 -0.10483,0.36415 -0.3246,0.70056 -0.65512,0.88588 -0.2783,0.15604 -0.2042,0.46018 -0.20451,0.72245 -0.003,2.20509 -0.002,4.41029 -0.004,6.61531 -4.7e-4,0.57233 -0.22441,1.23991 0.13337,1.71554 0.24579,0.32675 0.20225,0.6221 0.41936,1.02091 0.1755,0.32238 0.0815,0.71671 0.0463,1.06579 -0.0419,0.41612 0.40372,0.62182 0.60763,0.97568 0.20442,0.35475 0.47002,0.66572 0.80802,0.90749 0.3309,0.23669 0.52501,0.61643 0.57149,1.01431 0.0459,0.393 0.41527,0.58651 0.65643,0.85351 0.41101,0.45505 0.35551,1.26451 0.94429,1.5405 0.44397,0.20811 0.26638,0.68309 0.35006,1.06078 0.0784,0.3538 0.28669,1.42031 0.23252,1.06327 -0.0498,-0.32825 0.14035,-0.37729 0.29305,-0.0769 0.18218,0.35839 0.51976,0.78361 0.35739,1.15494 -0.19355,0.44262 0.27544,0.63655 0.51363,0.91948 0.30085,0.35737 -0.10447,0.86059 0.15272,1.22996 0.21037,0.30212 0.27999,0.65752 0.39766,1.00311 0.16458,0.48337 0.19091,0.99743 0.1201,1.49844 -0.0923,0.65293 0.46576,1.26546 0.32208,1.88673 -0.0805,0.34808 0.0256,0.68235 0.21323,0.98027 0.23565,0.37427 0.44399,0.78235 0.40792,1.25254 -0.0519,0.6759 -0.0276,1.35515 -0.0267,2.03272 0.003,1.79806 -0.20874,3.60893 0.004,5.39426 0.0438,0.36757 0.0896,0.77259 -0.15363,1.08916 -0.29072,0.37831 -0.54132,0.7824 -0.81385,1.17532 -0.64082,0.92392 -1.50846,1.65246 -2.32492,2.41395 -0.33373,0.31126 -0.59059,0.71715 -0.9755,0.96072 -0.4502,0.28489 -0.89794,0.57389 -1.27607,0.95795 -0.34882,0.35429 -0.61196,0.81236 -1.0293,1.07974 -0.32314,0.20703 -0.91739,0.0514 -1.0509,0.45315 -0.0935,0.28148 -0.23554,0.52825 -0.44068,0.75742 -0.38851,0.43401 -0.99964,0.59608 -1.37909,1.02626 -0.22468,0.25472 -0.45024,0.51775 -0.78679,0.6406 -0.65307,0.23839 -0.92146,0.97159 -1.57111,1.24997 -0.55343,0.23715 -1.02931,0.59214 -1.55168,0.90479 -0.28806,0.17241 -0.76169,0.32303 -0.7717,0.66197 -0.0124,0.41954 -0.36584,0.71394 -0.64455,0.9805 -0.37945,0.36291 -0.77402,0.76792 -1.27783,0.9178 -0.33087,0.0984 -0.92463,0.0591 -0.91733,0.51516 0.006,0.38253 -0.18909,0.68759 -0.51759,0.9083 -0.48008,0.32256 -0.93188,0.6514 -1.46314,0.93297 -0.42282,0.2241 -0.46382,0.73123 -0.46831,1.14464 -0.005,0.41518 -0.43467,0.42977 -0.70002,0.635 -0.70438,0.54479 -1.17053,1.35569 -1.89289,1.86841 -0.40481,0.28733 -0.82803,0.54019 -1.18564,0.89947 -0.47509,0.47731 -0.86164,1.06346 -1.42306,1.43436 -0.33095,0.21864 -0.68546,0.39877 -1.05202,0.55175 -0.28874,0.1205 -0.54578,0.10438 -0.83986,0.32327 -0.3063,0.22798 -0.54115,0.68858 -0.92588,0.68144 -0.39112,-0.007 -0.90464,-0.29159 -1.18182,-0.003 -0.23229,0.24177 -0.43918,0.51963 -0.70337,0.73298 -0.29365,0.23714 -0.43399,0.84464 -0.82085,0.77603 -0.49174,-0.0872 -0.97282,0.0462 -1.4312,0.21723 -0.55101,0.20561 -1.19124,-0.19649 -1.6908,0.13758 -0.33637,0.22494 -0.6323,0.50254 -1.01061,0.66909 -0.26233,0.11549 -1.02393,0.48122 -0.81397,0.36777 0.2788,-0.15065 0.21161,-0.30674 -0.0955,-0.21339 -0.40907,0.12434 -0.79625,0.32262 -1.23799,0.33222 -0.692,0.015 -1.38301,-0.0325 -2.07565,-0.0316 -2.56934,0.004 -5.13874,0.002 -7.70805,0.006 -0.53524,7.7e-4 -1.14087,0.25844 -1.60615,-0.006 -0.33458,-0.19017 -0.46413,-0.63561 -0.86014,-0.73931 -0.32404,-0.0848 -0.53463,-0.34479 -0.75486,-0.57725 -0.39434,-0.41623 -0.77492,-0.87395 -1.30897,-1.11343 -0.3081,-0.13816 -0.45668,-0.42695 -0.60257,-0.72999 -0.18453,-0.38329 -0.5647,-0.60323 -0.82963,-0.93183 -0.34266,-0.42501 -0.55668,-0.98336 -1.01262,-1.28917 -0.27416,-0.18389 -0.57245,-0.29916 -0.85233,-0.49657 -0.34532,-0.24357 -0.52097,-0.67002 -0.93327,-0.8361 -0.41195,-0.16594 -0.85031,-0.24356 -1.29713,-0.22772 -1.31536,0.0466 -2.63188,0.0284 -3.94789,0.0261 -2.21236,-0.004 -4.42481,0.002 -6.63712,-0.006 -0.76985,-0.003 -1.57349,-0.21664 -2.31054,0.006 -0.41794,0.12634 -0.67524,0.77261 -1.12276,0.62121 -0.33259,-0.11252 -0.60306,0.14465 -0.90741,0.24131 -0.31956,0.10149 -0.69046,-0.0716 -1.01714,0.0492 -0.29091,0.10755 -0.54866,0.27059 -0.83831,0.39737 -0.37537,0.1643 -0.76938,0.12997 -1.17207,0.17597 -0.51764,0.0591 -0.53031,0.77854 -0.97479,0.92669 -0.29425,0.0981 -0.57918,0.35783 -0.88276,0.29425 -0.3994,-0.0837 -0.7209,0.20758 -1.05187,0.3768 -0.61227,0.31304 -1.20579,0.77218 -1.89758,0.81851 -0.53427,0.0358 -1.07149,0.007 -1.60735,0.007 -7.488451,0.001 -14.980283,-0.22181 -22.465364,0.002 -0.954597,0.0286 -1.915669,0.04 -2.858952,-0.15041 -0.778622,-0.15714 -1.598042,-0.18257 -2.336722,-0.47216 -0.552006,-0.21641 -1.075199,-0.64318 -1.680547,-0.60253 -0.408018,0.0274 -0.851396,0.14916 -1.226447,-0.10703 -0.452473,-0.30908 -0.801199,-0.75644 -1.350279,-0.93641 -0.755975,-0.24778 -1.564653,-0.3245 -2.280274,-0.70441 -0.360744,-0.19151 -0.691401,-0.44682 -1.073755,-0.58878 -0.438207,-0.1627 -0.95798,-0.25968 -1.361679,-0.0484 -0.404154,0.21149 -0.854767,-0.005 -1.164787,-0.27352 -0.320453,-0.27797 -0.746073,-0.41357 -1.165598,-0.32979 -0.408016,0.0815 -0.746464,-0.0217 -1.036026,-0.42375 -0.29073,-0.40366 -0.842871,0.01 -1.218152,0.0672 -0.477718,0.0733 -0.95675,0.13976 -1.42766,0.2923 -0.802812,0.26006 -1.637623,0.43491 -2.488748,0.40139 -0.651019,-0.0256 -1.302753,-0.0308 -1.952366,-0.0776 -0.597188,-0.043 -0.998736,0.48221 -1.533044,0.63215 -0.401067,0.11255 -0.815377,0.0121 -1.2257,0.0123 -5.768447,0.002 -11.544794,-0.29838 -17.305364,0.002 -0.543287,0.0284 -1.086291,0.007 -1.617558,-0.18141 -0.744266,-0.26338 -1.52473,-0.48807 -2.327238,-0.43969 -0.627553,0.0378 -1.320906,0.17589 -1.879389,-0.17259 -0.36689,-0.22893 -0.783166,-0.0431 -1.177862,-0.185 -0.416597,-0.14975 -0.554074,-0.91572 -0.965355,-0.82762 -0.345473,0.074 -0.651084,-0.15887 -0.914659,-0.3542 -0.414009,-0.30681 -0.689648,-0.76038 -1.100229,-1.07326 -0.300694,-0.22914 -0.539575,-0.67504 -0.922259,-0.67102 -0.36916,0.004 -0.757194,-0.10393 -1.026446,-0.34232 -0.401685,-0.35565 -0.5791,-0.89688 -0.946632,-1.27585 -0.444923,-0.45877 -0.956899,-0.8539 -1.293351,-1.41886 -0.220847,-0.37084 -0.35267,-0.77836 -0.438582,-1.2076 -0.09311,-0.46521 -0.319193,-0.88541 -0.515546,-1.3177 -0.229535,-0.50534 0.03267,-1.05417 -0.104232,-1.58669 -0.136601,-0.53135 -0.308773,-1.05864 -0.286997,-1.61861 0.05309,-1.36518 0.03236,-2.73156 0.03236,-4.09747 0,-2.32827 0.551745,-4.72286 0,-6.98481 -0.100014,-0.41002 0.266354,-0.69924 0.358145,-1.07121 0.09385,-0.38029 0.177873,-0.81595 0.543844,-1.03343 0.327717,-0.19475 0.461835,-0.56848 0.50163,-0.92258 0.04235,-0.37683 0.397843,-0.55066 0.625856,-0.80623 0.272462,-0.30539 0.576728,-0.57119 0.826574,-0.90392 0.08484,-0.11299 0.429366,-0.61023 0.09172,-0.32218 -0.386512,0.32974 0.02396,-0.36855 0.10037,-0.51191 0.165491,-0.3105 0.355558,-0.60492 0.662404,-0.80129 0.327479,-0.20957 0.23425,-0.63298 0.207024,-0.95322 -0.03566,-0.41944 -0.03931,-0.84343 0.06837,-1.25181 0.06566,-0.24902 -0.01415,-0.88675 0.185016,-0.79593 0.213185,0.0972 0.313063,-0.43684 0.36301,-0.62182 0.12107,-0.4484 0.496411,-0.95191 0.288857,-1.36976 -0.166391,-0.33498 -0.220185,-0.76808 0.03865,-1.05289 0.235737,-0.25939 0.676601,-0.41638 0.552735,-0.8832 -0.101097,-0.38101 0.301178,-0.60847 0.320962,-0.97787 0.02785,-0.51996 -0.02322,-1.03962 -0.02257,-1.56094 0.0026,-2.09706 0.0087,-4.19424 0.004,-6.29122 -0.0013,-0.57186 0.1256,-1.17959 -0.138112,-1.71447 -0.227751,-0.46194 -0.274208,-0.99165 -0.173262,-1.4843 0.07307,-0.35659 -0.108442,-0.6369 -0.238372,-0.97138 -0.136986,-0.35265 -0.07818,-0.74586 -0.07742,-1.11682 9.84e-4,-0.48163 0.20022,-1.00067 0.02187,-1.44526 -0.110504,-0.27546 -0.326799,-0.50254 -0.329858,-0.82393 -0.005,-0.5224 0.02992,-1.04411 0.02919,-1.56745 -0.003,-2.13454 0.09026,-4.27149 -0.0045,-6.40373 -0.01633,-0.36771 0.141116,-0.72408 0.291801,-1.05336 0.09114,-0.19916 -0.166425,0.57998 0.157542,0.2147 0.197533,-0.22272 0.15402,-0.49832 0.156439,-0.77106 0.0057,-0.64027 -0.214214,-1.31771 0,-1.92234 0.103725,-0.29277 0.322126,-0.53186 0.324039,-0.86945 0.0033,-0.58859 -0.337291,-1.25701 -0.04228,-1.76582 0.143493,-0.24749 0.319571,-0.37491 0.319571,-0.75304 0,-0.67454 0,-1.34908 0,-2.02362"
       id="path5254"
       inkscape:connector-curvature="0"
       inkscape:path-effect="#path-effect5256"
       inkscape:original-d="m 22.850378,173.72822 c -0.05048,-0.20194 -0.445598,-1.36917 -0.300662,-1.80398 0.04482,-0.13446 0.200441,-0.20044 0.300662,-0.30066 0.200442,-0.20045 0.400884,-0.40089 0.601326,-0.60133 0.200442,-0.20044 0.400884,-0.40088 0.601326,-0.60133 0.100221,-0.10021 0.173892,-0.23727 0.300663,-0.30066 0.283467,-0.14173 0.630226,-0.1376 0.901988,-0.30066 0.243072,-0.14584 0.347785,-0.47456 0.601326,-0.60133 0.179281,-0.0896 0.406869,0.0486 0.601326,0 0.217411,-0.0543 0.383916,-0.24631 0.601326,-0.30066 0.194456,-0.0486 0.406869,0.0486 0.601324,0 0.217411,-0.0543 0.383919,-0.24631 0.601327,-0.30066 0.194458,-0.0486 0.400883,0 0.601326,0 0.701546,0 1.403094,0 2.104639,0 2.00442,0 4.00884,0 6.013259,0 0.701546,0 1.403094,0 2.104639,0 0.300665,0 0.601327,0 0.901988,0 0.100222,0 0.202391,-0.0197 0.300665,0 3.99755,0.79951 -0.0011,-0.15084 1.503315,0.60132 0.283742,0.74558 0.810633,0.16999 1.20265,0.30067 0.212601,0.0709 0.383916,0.24631 0.601327,0.30066 0.291684,0.0729 0.616754,-0.0951 0.901988,0 0.212601,0.0709 0.383916,0.24631 0.601326,0.30066 0.291685,0.0729 0.616755,-0.0951 0.901989,0 0.425201,0.14174 0.767831,0.49262 1.20265,0.60133 0.194458,0.0486 0.404776,-0.0393 0.601327,0 0.310771,0.0622 0.589372,0.24856 0.901988,0.30066 0.692002,0.11534 1.408509,-0.087 2.104639,0 0.410032,0.0513 0.795054,0.23273 1.202653,0.30067 0.197715,0.0329 0.400883,0 0.601326,0 0.901988,0 1.803977,0 2.705965,0 0.300662,0 0.601327,0 0.901989,0 0.200443,0 0.422044,0.0896 0.601326,0 0.25354,-0.12678 0.358254,-0.45549 0.601324,-0.60133 0.271764,-0.16306 0.618522,-0.15893 0.901991,-0.30067 0.25354,-0.12677 0.365466,-0.44408 0.601324,-0.60132 0.186465,-0.12431 0.422045,-0.1662 0.601326,-0.30066 0.340162,-0.25512 0.601327,-0.60133 0.901989,-0.90199 0.400883,-0.40089 0.759949,-0.84849 1.202653,-1.20265 0.282167,-0.22574 0.607943,-0.3913 0.901988,-0.60133 0.407765,-0.29126 0.754449,-0.67789 1.20265,-0.90199 0.179282,-0.0896 0.406869,0.0486 0.601327,0 0.217408,-0.0543 0.383915,-0.24631 0.601326,-0.30066 0.194456,-0.0486 0.411168,0.0634 0.601324,0 0.134461,-0.0448 0.173892,-0.23728 0.300665,-0.30066 0.113593,-0.0568 1.426559,0 1.803976,0 0.334161,0 2.22939,-0.0586 2.405304,0 0.873318,0.2911 0.41952,0.31464 1.20265,0.90198 0.402918,0.3022 1.0702,0.42808 1.503315,0.60133 1.125048,0.45002 0.09153,0.1961 1.503315,0.90199 0.940517,0.47026 2.066112,0.43173 3.006627,0.90199 0.323204,0.1616 0.578786,0.43972 0.901991,0.60132 0.283466,0.14174 0.607729,0.18296 0.901988,0.30067 0.208071,0.0832 0.393253,0.21743 0.601324,0.30066 0.588518,0.23541 1.215461,0.36592 1.803979,0.60132 0.75369,0.30148 1.283912,0.69681 2.104639,0.902 0.194458,0.0486 0.400883,0 0.601326,0 0.801767,0 1.603534,0 2.405304,0 0.601324,0 1.20265,0 1.803976,0 0.300662,0 0.616755,0.0951 0.901989,0 0.342807,-0.11428 0.559181,-0.48706 0.901988,-0.60133 0.285234,-0.0951 0.607166,0.059 0.901989,0 0.219749,-0.0439 0.400883,-0.20044 0.601326,-0.30067 0.400884,-0.10021 0.793583,-0.24222 1.20265,-0.30066 0.297643,-0.0425 0.607166,0.059 0.901989,0 0.531913,-0.10638 1.047938,-0.75019 1.503315,-0.90199 0.285234,-0.0951 0.605417,0.0494 0.901988,0 0.611741,0.10443 0.97409,-0.49548 1.503315,-0.60132 0.294825,-0.059 0.607166,0.059 0.901988,0 0.21975,-0.0439 0.393253,-0.21744 0.601327,-0.30066 0.294259,-0.11771 0.618521,-0.15893 0.901991,-0.30067 0.25354,-0.12677 0.3324,-0.51168 0.60132,-0.60132 0.19016,-0.0634 0.41117,0.0634 0.60133,0 0.13446,-0.0448 0.17389,-0.23728 0.30066,-0.30067 0.0896,-0.0448 0.21102,0.0448 0.30066,0 0.12678,-0.0634 0.16621,-0.25584 0.30067,-0.30066 0.38031,-0.12677 0.82234,0.12677 1.20265,0 0.13446,-0.0448 0.18273,-0.22204 0.30066,-0.30066 0.18647,-0.12431 0.41486,-0.17636 0.60133,-0.30067 0.11793,-0.0786 0.17389,-0.23727 0.30066,-0.30066 0.0674,-0.0337 1.13121,0 1.20265,0 0.34803,0 1.23489,0.0671 1.50332,0 0.43482,-0.1087 0.77745,-0.45959 1.20265,-0.60132 0.0951,-0.0317 0.22049,0.0601 0.30066,0 0.34016,-0.25512 0.5482,-0.66613 0.90199,-0.90199 0.21284,-0.91674 0.83305,-0.11587 1.20265,-0.30066 0.12677,-0.0634 0.18728,-0.21563 0.30066,-0.30067 0.28909,-0.21681 0.61291,-0.38451 0.90199,-0.60132 0.22678,-0.17008 0.34779,-0.47456 0.60133,-0.60133 0.28347,-0.14173 0.63022,-0.1376 0.90199,-0.30066 1.50331,-0.90199 0,-0.30067 0.90199,-0.90199 0.18646,-0.12431 0.41486,-0.17635 0.60132,-0.30066 0.34692,-0.23128 0.55507,-0.67071 0.90199,-0.90199 0.18646,-0.12431 0.41486,-0.17635 0.60133,-0.30066 0.11793,-0.0786 0.18273,-0.22205 0.30066,-0.30067 0.68959,-0.45973 0.51306,-0.1416 1.20265,-0.60132 0.23586,-0.15724 0.34778,-0.47456 0.60133,-0.60133 0.30066,-0.10022 0.60132,-0.20044 0.90198,-0.30066 0.10023,-0.10022 0.1739,-0.23728 0.30067,-0.30067 0.11359,-0.0568 1.42656,0 1.80397,0 1.4031,0 2.80619,0 4.20928,0 1.10244,0 2.20487,0 3.3073,0 0.30066,0 0.60132,0 0.90198,0 0.20045,0 0.40478,-0.0393 0.60133,0 0.31077,0.0622 0.59452,0.2238 0.90199,0.30067 0.0972,0.0243 0.20044,0 0.30066,0 0.40089,0 0.8172,-0.11013 1.20265,0 0.34745,0.0993 0.56648,0.46712 0.90199,0.60132 0.18611,0.0745 0.40089,0 0.60133,0 0.60132,0 1.20265,0 1.80398,0 0.51309,0 2.32304,-0.0638 2.70596,0 0.22105,0.0369 0.38028,0.26382 0.60133,0.30067 0.39543,0.0659 0.80486,-0.0497 1.20265,0 0.41003,0.0512 0.79745,0.21962 1.20265,0.30066 0.0983,0.0197 0.20344,-0.0243 0.30066,0 0.30747,0.0769 0.59122,0.23851 0.90199,0.30066 0.19655,0.0393 0.42205,-0.0896 0.60133,0 0.81814,0.40907 0.30165,0.75183 1.20265,0.90199 0.39543,0.0659 0.80722,-0.0659 1.20265,0 0.22105,0.0368 0.38158,0.25671 0.60133,0.30066 0.29179,0.0584 2.04853,0 2.4053,0 1.30287,0 2.60574,0 3.90862,0 0.0208,0 2.01549,0.0446 2.10464,0 0.25354,-0.12677 0.35825,-0.45548 0.60132,-0.60132 0.55393,-0.33236 0.7252,-0.30066 1.20265,-0.30066 0.20045,0 0.40687,0.0486 0.60133,0 0.21741,-0.0544 0.38392,-0.24632 0.60133,-0.30067 0.19445,-0.0486 0.40088,0 0.60132,0 0.40089,0 0.80177,0 1.20265,0 0.90199,0 1.80398,0 2.70597,0 0.70155,0 1.40309,0 2.10464,0 0.30066,0 0.61675,-0.0951 0.90199,0 0.34281,0.11427 0.59213,0.41541 0.90199,0.60133 0.38432,0.2306 0.82972,0.35271 1.20265,0.60132 0.11793,0.0786 0.20044,0.20044 0.30066,0.30067 0.30066,0.30066 0.60132,0.60132 0.90199,0.90198 0.10022,0.10023 0.17912,0.22775 0.30066,0.30067 0.38433,0.2306 0.85834,0.31439 1.20265,0.60132 0.02,0.0167 1.1507,1.73904 1.20265,1.80398 0.17708,0.22135 0.43125,0.37455 0.60133,0.60133 0.13446,0.17928 0.1662,0.42204 0.30066,0.60132 0.25512,0.34016 0.66613,0.5482 0.90199,0.90199 0.24883,0.37325 0.50354,1.11216 0.60133,1.50332 0.0243,0.0972 -0.0317,0.20558 0,0.30066 0.0709,0.2126 0.22979,0.38872 0.30066,0.60132 0.10681,0.32043 -0.12283,0.89559 0,1.20265 0.1342,0.33551 0.46712,0.56649 0.60133,0.902 0.14888,0.37221 -0.0786,0.80955 0,1.20265 0.0622,0.31077 0.22379,0.59452 0.30066,0.90198 0.0243,0.0972 -0.0317,0.20559 0,0.30067 0.0709,0.2126 0.25671,0.38157 0.30066,0.60132 0.0983,0.49138 0,1.00221 0,1.50332 0,0.90199 0,1.80397 0,2.70596 0,0.80177 0,1.60354 0,2.40531 0,0.20044 0,0.40088 0,0.60132 0,0.10022 0.0556,0.21728 0,0.30066 -0.20044,0.20045 -0.40088,0.40089 -0.60132,0.60133 0,0.10022 0.0448,0.21102 0,0.30066 -0.0634,0.12678 -0.23728,0.1739 -0.30067,0.30067 -0.43756,0.87513 -0.10351,1.05725 -0.60132,1.80397 -0.15724,0.23586 -0.47456,0.34779 -0.60133,0.60133 -0.0448,0.0896 0,0.20044 0,0.30066 0,0.20045 0,0.40089 0,0.60133 0,0.90199 0,1.80398 0,2.70596 0,1.10244 0,2.20486 0,3.3073 0,0.30051 -0.0643,1.24608 0,1.50331 0.0769,0.30747 0.2238,0.59452 0.30067,0.90199 0.0243,0.0972 -0.0448,0.21102 0,0.30066 0.0634,0.12677 0.26628,0.16316 0.30066,0.30067 0.0729,0.29168 0,0.60132 0,0.90198 0,0.10022 -0.0448,0.21103 0,0.30067 0.0634,0.12677 0.21562,0.18727 0.30066,0.30066 0.21681,0.28908 0.38452,0.61291 0.60133,0.90199 0.30066,0.40088 0.60132,0.40088 0.90198,0.90199 0.16306,0.27176 0.13761,0.63022 0.30067,0.90199 0.14584,0.24307 0.43124,0.37455 0.60132,0.60132 0.26893,0.35856 0.33241,0.84409 0.60133,1.20265 0.17008,0.22678 0.47455,0.34779 0.60133,0.60133 0.0896,0.17928 -0.0393,0.40477 0,0.60132 0.50629,2.53149 0.005,0.009 0.60132,1.20266 0.14173,0.28346 0.23851,0.59121 0.30066,0.90198 0.0393,0.19655 -0.0896,0.42205 0,0.60133 0.12677,0.25354 0.49605,0.33813 0.60133,0.60132 0.11166,0.27916 -0.059,0.60717 0,0.90199 0.0439,0.21975 0.20044,0.40089 0.30066,0.60133 0.10022,0.40088 0.24223,0.79358 0.30066,1.20265 0.0709,0.49607 -0.0824,1.00903 0,1.50331 0.0679,0.40761 0.23273,0.79506 0.30067,1.20266 0.0329,0.19771 -0.0634,0.41117 0,0.60132 0.14173,0.4252 0.47819,0.7717 0.60132,1.20265 0.0826,0.2891 0,0.60133 0,0.90199 0,0.20045 0,0.40089 0,0.60133 0,1.30287 0,2.60574 0,3.90862 0,0.80176 0,1.60353 0,2.4053 0,0.30066 0.0951,0.61675 0,0.90199 -0.11427,0.34281 -0.40088,0.60132 -0.60132,0.90199 -0.20044,0.30066 -0.37,0.62439 -0.60133,0.90199 -0.54441,0.65329 -1.20265,1.20265 -1.80397,1.80397 -0.30067,0.30066 -0.60133,0.60133 -0.90199,0.90199 -0.10022,0.10022 -0.18728,0.21562 -0.30067,0.30066 -0.28908,0.21682 -0.62439,0.37 -0.90199,0.60133 -0.43553,0.36294 -0.80176,0.80177 -1.20265,1.20265 -0.10022,0.10022 -0.17389,0.23728 -0.30066,0.30066 -0.28347,0.14174 -0.64845,0.11051 -0.90199,0.30067 -0.17928,0.13446 -0.1662,0.42204 -0.30066,0.60132 -0.17008,0.22678 -0.37998,0.42425 -0.60133,0.60133 -0.28216,0.22573 -0.6129,0.38451 -0.90199,0.60133 -0.22677,0.17007 -0.36546,0.44408 -0.60132,0.60132 -0.18646,0.12431 -0.42633,0.16067 -0.60133,0.30066 -0.33202,0.26562 -0.56996,0.63637 -0.90199,0.90199 -0.17499,0.14 -0.40916,0.18536 -0.60132,0.30066 -0.30986,0.18592 -0.59213,0.41542 -0.90199,0.60133 -0.19217,0.1153 -0.42204,0.1662 -0.60133,0.30066 -1.19013,0.8926 -0.0192,0.31988 -1.20265,1.50332 -0.35433,0.35433 -0.76757,0.65337 -1.20265,0.90199 -0.27517,0.15723 -0.67789,0.0766 -0.90199,0.30066 -0.2241,0.2241 -0.0766,0.67789 -0.30066,0.90199 -0.41322,0.41322 -1.01708,0.57783 -1.50331,0.90199 -0.11793,0.0786 -0.20045,0.20044 -0.30067,0.30066 -0.10022,0.10022 -0.24802,0.16906 -0.30066,0.30066 -0.15347,0.38367 -0.0881,0.84832 -0.30066,1.20265 -0.1153,0.19217 -0.42634,0.16067 -0.60133,0.30067 -0.55338,0.4427 -1.00221,1.00221 -1.50331,1.50331 -0.10023,0.10022 -0.18728,0.21562 -0.30067,0.30066 -0.28908,0.21681 -0.6129,0.38452 -0.90198,0.60133 -0.11339,0.085 -0.20045,0.20044 -0.30067,0.30066 -0.40088,0.40089 -0.80177,0.80177 -1.20265,1.20265 -0.10022,0.10023 -0.18273,0.22205 -0.30066,0.30067 -0.18647,0.1243 -0.40089,0.20044 -0.60133,0.30066 -0.20044,0.10022 -0.38872,0.2298 -0.60132,0.30066 -0.0951,0.0317 -0.21473,-0.0516 -0.30067,0 -0.42969,0.25782 -0.77295,0.64417 -1.20265,0.90199 -0.0859,0.0516 -0.20044,0 -0.30066,0 -0.30066,0 -0.6103,-0.0729 -0.90199,0 -0.1375,0.0344 -0.20044,0.20044 -0.30066,0.30066 -0.20044,0.20045 -0.40089,0.40089 -0.60133,0.60133 -0.20044,0.20044 -0.34778,0.47456 -0.60132,0.60133 -0.17929,0.0896 -0.40361,-0.033 -0.60133,0 -0.4076,0.0679 -0.79262,0.2494 -1.20265,0.30066 -0.39779,0.0497 -0.81719,-0.11013 -1.20265,0 -0.34745,0.0993 -0.57879,0.43972 -0.90199,0.60132 -2.28535,1.14268 -0.17767,0.0444 -1.20265,0.30067 -0.30747,0.0769 -0.58825,0.25584 -0.90199,0.30066 -0.59528,0.085 -1.20265,0 -1.80398,0 -1.00221,0 -2.00442,0 -3.00663,0 -1.60353,0 -3.20707,0 -4.8106,0 -0.0506,0 -2.04474,0.0299 -2.10464,0 -0.25354,-0.12677 -0.37455,-0.43125 -0.60133,-0.60133 -0.17928,-0.13446 -0.41486,-0.17635 -0.60132,-0.30066 -0.11794,-0.0786 -0.20045,-0.20044 -0.30067,-0.30066 -0.30066,-0.30066 -0.57534,-0.62978 -0.90199,-0.90199 -0.27759,-0.23133 -0.64647,-0.34581 -0.90199,-0.60133 -0.15846,-0.15846 -0.1662,-0.42204 -0.30066,-0.60132 -0.17008,-0.22678 -0.41985,-0.38356 -0.60132,-0.60133 -0.3208,-0.38496 -0.58895,-0.81135 -0.90199,-1.20265 -0.0885,-0.11068 -0.18273,-0.22204 -0.30067,-0.30066 -0.18646,-0.12431 -0.42204,-0.1662 -0.60132,-0.30066 -1.00361,-0.75271 -0.42034,-0.85675 -1.80398,-1.20266 -0.24327,-0.0608 -1.45917,0 -1.50331,0 -1.20265,0 -2.40531,0 -3.60796,0 -1.90419,0 -3.80839,0 -5.71259,0 -0.0914,0 -2.55936,-0.0489 -2.70597,0 -0.34281,0.11427 -0.56648,0.46713 -0.90199,0.60133 -0.1861,0.0744 -0.40687,-0.0486 -0.60132,0 -0.21741,0.0543 -0.40088,0.20044 -0.60133,0.30066 -0.30066,0 -0.60716,-0.059 -0.90199,0 -0.21975,0.0439 -0.39325,0.21744 -0.60132,0.30067 -0.29426,0.1177 -0.59453,0.22379 -0.90199,0.30066 -0.0972,0.0243 -0.21102,-0.0448 -0.30066,0 -0.74464,-0.16669 -0.75445,0.67789 -1.20266,0.90199 -0.30066,0.10022 -0.60132,0.20044 -0.90198,0.30066 -0.10023,0 -0.20559,-0.0317 -0.30067,0 -0.2126,0.0709 -0.40088,0.20044 -0.60132,0.30066 -0.40089,0.20044 -0.79069,0.42477 -1.20265,0.60133 -0.9234,0.39574 -0.83535,0.30066 -1.80398,0.30066 -5.812816,0 -11.625633,0 -17.438449,0 -1.803977,0 -3.607954,0 -5.41193,0 -0.701548,0 -1.40516,0.0538 -2.104642,0 -0.607824,-0.0468 -1.20419,-0.19161 -1.803976,-0.30066 -0.502786,-0.0914 -1.00221,-0.20044 -1.503315,-0.30067 -0.501105,-0.20044 -0.976458,-0.48424 -1.503313,-0.60132 -0.391339,-0.087 -0.827293,0.14076 -1.202652,0 -0.469199,-0.17595 -0.76757,-0.65337 -1.202651,-0.90199 -0.462555,-0.26432 -1.678604,-0.44156 -2.104641,-0.60132 -0.419664,-0.15738 -0.801767,-0.40089 -1.20265,-0.60133 -0.200443,-0.10022 -0.380275,-0.26382 -0.601327,-0.30066 -0.39543,-0.0659 -0.804862,0.0497 -1.202653,0 -0.782632,0.34798 -1.178748,-0.49713 -1.803977,-0.60133 -0.395427,-0.0659 -0.809551,0.0786 -1.20265,0 -0.277963,-0.0556 -0.31786,-0.60133 -0.601326,-0.60133 -0.413221,0 -0.797455,0.21963 -1.202651,0.30067 -0.09828,0.0197 -0.20239,-0.0197 -0.300664,0 -0.810393,0.16208 -1.585241,0.49881 -2.405303,0.60132 -0.69613,0.087 -1.403094,0 -2.104639,0 -0.400884,0 -0.813737,-0.0972 -1.202653,0 -0.434819,0.10871 -0.771694,0.4782 -1.20265,0.60133 -0.289095,0.0826 -0.601327,0 -0.901989,0 -0.701548,0 -1.403093,0 -2.104641,0 -2.405303,0 -4.810607,0 -7.215907,0 -2.00442,0 -4.00884,0 -6.01326,0 -0.701545,0 -1.403093,0 -2.104638,0 -0.400884,0 -0.805797,0.0567 -1.202653,0 -0.31374,-0.0448 -0.597255,-0.2136 -0.901989,-0.30066 -0.397322,-0.11353 -0.793583,-0.24223 -1.20265,-0.30067 -0.694497,-0.0992 -1.410144,0.0992 -2.104641,0 -0.31374,-0.0448 -0.591217,-0.23851 -0.901989,-0.30066 -0.196548,-0.0393 -0.406868,0.0486 -0.601326,0 -0.485397,-0.12135 -0.596358,-0.2957 -0.901988,-0.60133 -0.100221,-0.10022 -0.173892,-0.23727 -0.300663,-0.30066 -0.08964,-0.0448 -0.211022,0.0448 -0.300663,0 -1.119732,-0.55986 -0.806557,-0.67213 -1.803977,-1.50331 -1.292487,-1.07708 -0.447969,-0.22399 -1.803977,-0.90199 -0.275614,-0.13781 -0.849754,-1.13736 -0.901989,-1.20265 -0.191281,-0.23911 -1.032579,-0.9192 -1.202651,-1.20265 -0.924731,-1.54122 -0.337482,-0.99404 -0.901989,-2.40531 -0.08323,-0.20807 -0.24631,-0.38391 -0.300663,-0.60132 -0.09723,-0.38892 0.06591,-0.80722 0,-1.20265 -0.06793,-0.4076 -0.219623,-0.79746 -0.300663,-1.20265 -0.07364,-0.36822 0,-1.46634 0,-1.80398 0,-1.60354 0,-3.20707 0,-4.81061 0,-1.30287 0,-2.60574 0,-3.90862 0,-0.40088 0,-0.80177 0,-1.20265 0,-0.10022 -0.03169,-0.20558 0,-0.30066 0.07087,-0.2126 0.217435,-0.39325 0.300663,-0.60133 0.117704,-0.29426 0.137606,-0.63022 0.300663,-0.90199 0.145843,-0.24307 0.455483,-0.35825 0.601326,-0.60132 0.163057,-0.27176 0.158929,-0.61852 0.300663,-0.90199 0.06339,-0.12677 0.200442,-0.20044 0.300663,-0.30066 0.200442,-0.20045 0.400884,-0.40089 0.601325,-0.60133 0.100221,-0.10022 0.222044,-0.18273 0.300663,-0.30066 1.216897,-1.82535 -0.865512,0.94141 0.601326,-1.50332 0.145843,-0.24307 0.496049,-0.33813 0.601326,-0.60132 0.07159,-0.17897 -0.04772,-1.21697 0,-1.50331 0.41672,-2.50033 0.0824,-0.24721 0.601326,-1.80398 0.130672,-0.39202 0.219623,-0.79746 0.300662,-1.20265 0.106903,-0.53452 -0.320707,-0.40089 0,-1.20266 0.105278,-0.26319 0.474556,-0.34778 0.601326,-0.60132 0.08964,-0.17928 -0.04861,-0.40687 0,-0.60133 0.05435,-0.21741 0.256713,-0.38157 0.300663,-0.60132 0.07862,-0.3931 0,-0.80177 0,-1.20265 0,-1.10244 0,-2.20487 0,-3.3073 0,-1.10243 0,-2.20486 0,-3.30729 0,-0.30051 0.06431,-1.24608 0,-1.50331 -0.07687,-0.30747 -0.238508,-0.59122 -0.300663,-0.90199 -0.07862,-0.3931 0,-0.80177 0,-1.20265 0,-0.10022 0.03169,-0.20559 0,-0.30067 -0.07087,-0.2126 -0.256713,-0.38157 -0.300663,-0.60132 -0.0551,-0.27548 0,-1.81029 0,-2.10464 0,-0.10022 0.03169,-0.20559 0,-0.30067 -0.07087,-0.2126 -0.256713,-0.38157 -0.300663,-0.60132 -0.07862,-0.3931 0,-0.80177 0,-1.20265 0,-0.90199 0,-1.80398 0,-2.70597 0,-1.00221 0,-2.00442 0,-3.00663 0,-0.40088 0,-0.80176 0,-1.20265 0,-0.10022 -0.03169,-0.20558 0,-0.30066 0.725943,-2.17783 -0.08668,0.47403 0.601326,-0.90199 0.04482,-0.0896 0,-0.20044 0,-0.30066 0,-0.10022 0,-0.20045 0,-0.30066 0,-0.22954 -0.06314,-1.61455 0,-1.80398 0.07087,-0.2126 0.229796,-0.38873 0.300663,-0.60133 0.05836,-0.17507 0,-1.5971 0,-1.80397 0,-0.10023 -0.04482,-0.21103 0,-0.30067 0.06339,-0.12677 0.237278,-0.17389 0.300663,-0.30066 0.04482,-0.0896 0,-0.20044 0,-0.30066 0,-0.20045 0,-0.40089 0,-0.60133 0,-0.5011 0,-1.00221 0,-1.50331" />
    <text
       xml:space="preserve"
       style="font-style:normal;font-variant:normal;font-weight:normal;font-stretch:normal;font-size:10.58333302px;line-height:125%;font-family:'URW Chancery L';-inkscape-font-specification:'URW Chancery L';letter-spacing:0px;word-spacing:0px;fill:#000000;fill-opacity:1;stroke:none;stroke-width:0.26458332px;stroke-linecap:butt;stroke-linejoin:miter;stroke-opacity:1"
       x="24.654356"
       y="54.665718"
       id="text5260"><tspan
         sodipodi:role="line"
         id="tspan5258"
         x="24.654356"
         y="54.665718"
         style="stroke-width:0.26458332px">The cloud</tspan></text>
    <text
       xml:space="preserve"
       style="font-style:normal;font-variant:normal;font-weight:normal;font-stretch:normal;font-size:10.58333302px;line-height:125%;font-family:'URW Chancery L';-inkscape-font-specification:'URW Chancery L';letter-spacing:0px;word-spacing:0px;fill:#000000;fill-opacity:1;stroke:none;stroke-width:0.26458332px;stroke-linecap:butt;stroke-linejoin:miter;stroke-opacity:1"
       x="33.072918"
       y="265.12973"
       id="text5264"><tspan
         sodipodi:role="line"
         id="tspan5262"
         x="33.072918"
         y="265.12973"
         style="stroke-width:0.26458332px">Client- the computer in front of you</tspan></text>
  </g>
</svg>
